<?xml version="1.0" standalone="no"?>
<!DOCTYPE svg PUBLIC "-//W3C//DTD SVG 1.1//EN" "http://www.w3.org/Graphics/SVG/1.1/DTD/svg11.dtd" >
<svg xmlns="http://www.w3.org/2000/svg">
<metadata></metadata>
<defs>
<font id="AntipastoRegular" horiz-adv-x="1148" >
<font-face units-per-em="2048" ascent="1638" descent="-410" />
<missing-glyph horiz-adv-x="315" />
<glyph horiz-adv-x="0" />
<glyph horiz-adv-x="2048" />
<glyph unicode="&#xd;" horiz-adv-x="681" />
<glyph unicode=" "  horiz-adv-x="315" />
<glyph unicode="&#x09;" horiz-adv-x="315" />
<glyph unicode="&#xa0;" horiz-adv-x="315" />
<glyph unicode="!" horiz-adv-x="311" d="M72 84q0 35 24.5 59.5t59.5 24.5t59.5 -24.5t24.5 -59.5t-25 -59.5t-59 -24.5q-35 0 -59.5 24.5t-24.5 59.5zM92 410v835q0 27 18.5 45.5t45.5 18.5t45 -18.5t18 -45.5v-835q0 -27 -18.5 -45.5t-44.5 -18.5q-27 0 -45.5 18.5t-18.5 45.5z" />
<glyph unicode="&#x22;" horiz-adv-x="550" d="M98 985v315q0 27 18.5 45.5t45.5 18.5t45 -18.5t18 -45.5v-315q0 -23 -18.5 -43t-44.5 -20q-27 0 -45.5 18t-18.5 45zM319 985v315q0 27 18.5 45.5t45.5 18.5t45 -18.5t18 -45.5v-315q0 -23 -18 -43t-45 -20t-45.5 18t-18.5 45z" />
<glyph unicode="#" horiz-adv-x="1296" d="M61 477q0 27 18.5 45.5t45.5 18.5h197l94 295h-152q-27 0 -45 18t-18 45t18.5 45.5t44.5 18.5h193l110 348q13 43 52 43t55 -20.5t16 -38t-2 -23.5l-98 -309h307l111 348q13 43 51.5 43t54.5 -20.5t16 -38t-2 -23.5l-98 -309h141q27 0 45.5 -18.5t18.5 -45.5t-18.5 -45 t-45.5 -18h-182l-94 -295h147q27 0 45.5 -18.5t18.5 -45.5t-18.5 -45t-45.5 -18h-188l-119 -371q-6 -20 -24.5 -32.5t-42 -12.5t-41 20.5t-17.5 35.5t4 28l107 332h-307l-119 -371q-6 -20 -24.5 -32.5t-42.5 -12.5t-41 20.5t-17 35.5t4 28l107 332h-156q-27 0 -45.5 18.5 t-18.5 44.5zM457 541h305l94 295h-307z" />
<glyph unicode="$" horiz-adv-x="987" d="M74 246q0 23 16 43t52 20t52.5 -31t42 -54t57.5 -42q64 -37 136 -49v547q-142 50 -202 98q-115 94 -115 203q0 131 98 218q90 80 219 101v127q0 27 18.5 45.5t45.5 18.5t45 -18.5t18 -45.5v-122q194 -20 301 -166q14 -23 14 -47.5t-18 -44t-51 -19.5t-53 33 q-62 96 -193 115v-400q50 -12 131.5 -54t127.5 -87q97 -95 97 -246q0 -146 -106 -256q-105 -109 -250 -129v-143q0 -27 -18.5 -45.5t-44.5 -18.5q-27 0 -45.5 18.5t-18.5 45.5v143q-117 14 -228 80q-128 76 -128 162zM242 981q0 -72 120 -129q33 -16 68 -31v353 q-76 -13 -116 -46q-72 -61 -72 -147zM557 133q96 16 162 89q67 73 67 168t-63.5 150.5t-165.5 94.5v-502z" />
<glyph unicode="%" horiz-adv-x="1353" d="M70 1065q0 121 87 208t208 87q120 0 207 -87t87 -208t-87 -208t-207 -87q-121 0 -208 87t-87 208zM197 1065q0 -70 49 -119t119 -49t118.5 49t48.5 119t-49 119t-118 49q-70 0 -119 -49t-49 -119zM399 53q0 18 4 27l410 1229q6 20 23.5 33.5t42.5 13.5t41 -22.5t16 -39 t-2 -20.5l-410 -1231q-16 -45 -54 -45t-54.5 18.5t-16.5 36.5zM692 293q0 121 87 208t208 87t208 -87t87 -208t-87 -208t-208 -87t-208 87t-87 208zM819 293q0 -70 49.5 -119t118.5 -49q70 0 119 49t49 119t-49 119t-119 49t-119 -49t-49 -119z" />
<glyph unicode="&#x26;" horiz-adv-x="1179" d="M78 365q0 98 46 181t124 134q-2 0 -2 2q-66 47 -106 123t-40 157t28 145t76 113q102 103 251 103q147 0 250.5 -103.5t103.5 -250.5q0 -130 -87 -232q-86 -101 -214 -119l303 -270l174 158q16 14 42 14t43 -18.5t17 -46t-20 -45.5l-162 -148l174 -164q20 -18 20.5 -46 t-17 -47t-42.5 -19t-45 16l-184 174l-76 -70q-134 -120 -280 -120q-155 0 -267 110q-110 109 -110 269zM203 375q0 -63 19.5 -108.5t53.5 -80.5q74 -73 179 -73q63 0 123.5 38.5t138.5 110.5l-369 330q-66 -31 -105.5 -92.5t-39.5 -124.5zM229 969q0 -94 64 -158 q65 -65 161 -67q48 -1 89 16.5t71 48.5q66 67 66 160q0 94 -65.5 159.5t-159.5 65.5q-93 0 -160 -66q-66 -64 -66 -159z" />
<glyph unicode="'" horiz-adv-x="323" d="M98 989v316q0 27 18.5 45t45.5 18t45 -18.5t18 -44.5v-316q0 -27 -18.5 -45t-44.5 -18q-27 0 -45.5 18.5t-18.5 44.5z" />
<glyph unicode="(" horiz-adv-x="575" d="M72 164v981q0 151 104 257q109 111 254 111q33 0 52.5 -18t19.5 -45t-18.5 -45.5t-56.5 -18.5t-82 -19t-77 -52q-69 -71 -69 -170v-981q0 -99 69 -170q71 -72 170 -72q27 0 45.5 -18.5t18.5 -44.5q0 -27 -18.5 -45.5t-45.5 -18.5q-151 0 -259 108q-107 107 -107 261z" />
<glyph unicode=")" horiz-adv-x="577" d="M74 -141q0 27 18.5 45t56 18t81.5 19.5t77 52.5q70 70 70 170v981q0 100 -70 170q-71 71 -170 71q-27 0 -45 18.5t-18 45.5t19.5 45t72.5 18t118.5 -30.5t115.5 -80.5q104 -106 104 -257v-981q0 -153 -108 -261t-259 -108q-27 0 -45 18.5t-18 45.5z" />
<glyph unicode="*" horiz-adv-x="636" d="M74 1029q0 44 30 61l91 51l-91 51q-29 16 -28.5 50t20 50.5t35.5 16.5t37 -9l88 -51v103q0 27 18.5 45t44 18t44 -18.5t18.5 -44.5v-105l90 53q37 21 64.5 -0.5t27.5 -54.5t-31 -51l-88 -53l91 -51q29 -18 28.5 -50.5t-19 -48.5t-37.5 -16t-34 8l-92 51v-104 q0 -25 -18.5 -43.5t-44.5 -18.5t-44 18.5t-18 43.5v102l-88 -51q-20 -8 -35.5 -8t-37 16.5t-21.5 39.5z" />
<glyph unicode="+" horiz-adv-x="858" d="M49 635q0 27 18.5 45t45.5 18h252v254q0 27 18 45.5t45 18.5t45.5 -18.5t18.5 -45.5v-254h253q27 0 45.5 -18t18.5 -45t-18.5 -45.5t-45.5 -18.5h-253v-254q0 -27 -18.5 -45t-45.5 -18t-45 18.5t-18 44.5v254h-252q-27 0 -45.5 18.5t-18.5 45.5z" />
<glyph unicode="," horiz-adv-x="323" d="M98 80q0 27 18.5 45t45.5 18t45 -18.5t18 -44.5v-316q0 -23 -18.5 -43t-44.5 -20q-27 0 -45.5 18.5t-18.5 44.5v316z" />
<glyph unicode="-" horiz-adv-x="950" d="M96 637q0 27 18.5 45t45.5 18h631q27 0 45 -18t18 -45t-18.5 -45.5t-44.5 -18.5h-631q-27 0 -45.5 18.5t-18.5 45.5z" />
<glyph unicode="." horiz-adv-x="329" d="M80 84q0 35 24.5 59.5t59.5 24.5t59.5 -24.5t24.5 -59.5t-24.5 -59.5t-59.5 -24.5t-59.5 24.5t-24.5 59.5z" />
<glyph unicode="/" horiz-adv-x="630" d="M53 54q0 15 4 28l394 1229q13 43 51.5 43t54.5 -20.5t16 -38t-2 -23.5l-393 -1229q-6 -20 -24.5 -32.5t-42 -12.5t-41 20.5t-17.5 35.5z" />
<glyph unicode="0" horiz-adv-x="1464" d="M80 651q0 135 51 254t139 208t207 140.5t254 51.5t254 -51.5t208 -140.5t140 -208t51 -254t-51 -253.5t-140 -207t-208 -139.5t-254 -51t-254 51t-207 139.5t-139 207t-51 253.5zM207 651q0 -219 153 -371q70 -71 166.5 -112t204.5 -41q217 0 373 153q153 149 153 371 q0 220 -153 373q-154 154 -373 154q-221 0 -371 -154q-153 -156 -153 -373z" />
<glyph unicode="1" horiz-adv-x="520" d="M76 1086q0 42 30 61l230 145q20 14 47 15q27 0 45 -16.5t18 -45.5v-1182q0 -27 -18 -45t-45 -18t-45.5 18.5t-18.5 44.5v1065l-147 -90q-16 -10 -36 -10t-40 17.5t-20 40.5z" />
<glyph unicode="2" horiz-adv-x="993" d="M90 32q-30 40 25 93l454 432q134 127 169.5 184.5t44 93t8.5 85.5t-20.5 101.5t-57.5 90.5q-78 82 -187.5 82t-180.5 -52t-95 -145q-18 -61 -62 -61q-27 0 -44 17.5t-17 53t27.5 91t79.5 102.5q121 111 288 111q159 0 276 -121q115 -118 115 -287q0 -198 -200 -379 l-430 -399h565q27 0 45 -18.5t18 -45.5t-18.5 -44t-44.5 -17h-690q-45 0 -68 32z" />
<glyph unicode="3" horiz-adv-x="968" d="M74 397q0 27 18.5 45.5t44.5 18.5q27 0 45.5 -18.5t18.5 -61.5t22.5 -94t60.5 -89q83 -83 199 -83q117 0 200 83t83 199q0 114 -80 196q-81 83 -192 87h-11q-27 0 -45 18.5t-18 44.5q0 27 18.5 45.5t44.5 18.5h9q74 4 126 57.5t52 130t-54.5 131t-132.5 54.5t-132 -54.5 t-54 -130.5q0 -29 -18.5 -46t-47.5 -17t-46 17.5t-17 63t24.5 103.5t67.5 101q92 92 223 92q132 0 224 -92t92 -231t-113 -234q92 -53 149.5 -146.5t57.5 -193t-33 -174t-88 -130.5q-119 -120 -289 -120q-168 0 -288.5 120.5t-120.5 288.5z" />
<glyph unicode="4" horiz-adv-x="937" d="M70 378q0 30 14 52l526 852q18 27 46 27t48.5 -19.5t20.5 -50.5v-809h82q27 0 45 -18.5t18 -44.5q0 -27 -18 -45.5t-45 -18.5h-82v-233q0 -27 -18.5 -45.5t-44.5 -18.5q-27 0 -45.5 18.5t-18.5 45.5v233h-455q-33 0 -53 22.5t-20 52.5zM229 430h369v584z" />
<glyph unicode="5" horiz-adv-x="1021" d="M78 290q0 60 57 60q44 0 79.5 -65.5t111 -111.5t156 -46t138.5 25.5t102 69.5q95 95 95 229q0 133 -95 228t-228 95q-106 0 -180 -45q-27 -16 -43.5 -40t-31 -38t-38.5 -14q-25 0 -41.5 18.5t-16.5 40.5l90 553q2 25 20.5 42.5t43.5 17.5h506q27 0 45 -18.5t18 -45.5 t-18.5 -45t-44.5 -18h-453l-53 -326q94 45 191.5 45t179.5 -36t143 -97q133 -133 133 -317q0 -183 -133 -317q-132 -134 -317 -134q-131 0 -236.5 66.5t-165.5 175.5q-14 23 -14 48z" />
<glyph unicode="6" horiz-adv-x="1007" d="M66 438q0 131 84 258l372 584q21 29 53 29t48 -19.5t16 -41t-8 -36.5l-223 -348q58 10 121 10t143 -33.5t139 -92.5q129 -131 129 -310q0 -180 -129 -309t-309 -129q-179 0 -310 129q-126 125 -126 309zM193 438q0 -129 90 -219t219 -90q128 0 220 90q91 89 91 219 q0 129 -91 220q-92 92 -222 92q-64 0 -120 -25t-97 -67q-90 -92 -90 -220z" />
<glyph unicode="7" horiz-adv-x="858" d="M61 1243q0 27 18.5 45.5t45.5 18.5h606q31 0 47.5 -19.5t16.5 -40t-7 -35.5l-534 -1179q-20 -33 -53 -33t-50.5 20.5t-17.5 39.5t8 34l484 1086h-500q-27 0 -45.5 18.5t-18.5 44.5z" />
<glyph unicode="8" horiz-adv-x="960" d="M78 403q0 111 54 202.5t144 144.5q-112 95 -112 243q0 132 92 224t223 92t223 -92q93 -93 93 -232.5t-115 -232.5q92 -53 147.5 -145.5t55.5 -190t-32 -170t-86 -128.5q-115 -118 -286 -118q-167 0 -283 118q-118 120 -118 285zM207 401q0 -112 80 -192t192 -80 q115 0 195 80t80 192q0 115 -80 195t-195 80q-112 0 -192 -80t-80 -195zM291 993q0 -81 54 -133q56 -55 134 -55q80 0 134.5 54.5t54.5 133.5q0 80 -54.5 134.5t-134.5 54.5q-78 0 -134 -54q-54 -53 -54 -135z" />
<glyph unicode="9" horiz-adv-x="1005" d="M66 870q0 181 128 310q130 129 310 129q181 0 309 -129q127 -129 127 -310q0 -126 -84 -258l-373 -583q-20 -31 -52 -31t-49 20.5t-17 40.5t10 37l223 348q-58 -10 -121 -10t-143 34t-140 94q-128 128 -128 308zM193 868q0 -64 24.5 -120t66.5 -98q91 -91 220 -91 q130 0 219 91q90 92 90 220q0 131 -90 220q-92 90 -219 90q-126 0 -220 -90q-91 -88 -91 -222z" />
<glyph unicode=":" horiz-adv-x="337" d="M84 84q0 35 24.5 59.5t59.5 24.5t59.5 -24.5t24.5 -59.5t-24.5 -59.5t-59.5 -24.5t-59.5 24.5t-24.5 59.5zM84 909q0 35 24.5 59.5t59.5 24.5t59.5 -24.5t24.5 -59.5t-24.5 -59.5t-59.5 -24.5t-59.5 24.5t-24.5 59.5z" />
<glyph unicode=";" horiz-adv-x="303" d="M68 907q0 35 24.5 59.5t59.5 24.5t59.5 -24.5t24.5 -59.5t-25 -59.5t-59 -24.5q-35 0 -59.5 24.5t-24.5 59.5zM86 80q0 27 18.5 45t45.5 18t45 -18.5t18 -44.5v-316q0 -23 -18.5 -43t-44.5 -20q-27 0 -45.5 18.5t-18.5 44.5v316z" />
<glyph unicode="=" horiz-adv-x="923" d="M96 471q0 27 18.5 45.5t45.5 18.5h604q27 0 45 -18.5t18 -45.5t-18 -45t-45 -18h-604q-27 0 -45.5 18t-18.5 45zM96 889q0 27 18.5 45t45.5 18h604q27 0 45 -18.5t18 -44.5q0 -27 -18 -45.5t-45 -18.5h-604q-27 0 -45.5 18.5t-18.5 45.5z" />
<glyph unicode="&#x3e;" horiz-adv-x="786" d="M74 900.5q0 31.5 17.5 48t39.5 16.5t37 -9l520 -278q23 -12 23 -46t-25 -46l-518 -277q-14 -8 -35 -8t-39 15.5t-18 38.5q0 47 39 65l436 213l-447 221q-30 15 -30 46.5z" />
<glyph unicode="?" horiz-adv-x="919" d="M57 905q0 168 118 286t284 118q164 0 283 -118q118 -116 118 -284q0 -166 -117.5 -283.5t-283.5 -117.5h-64v-96q0 -33 -18.5 -52.5t-44.5 -19.5q-27 0 -45.5 19.5t-18.5 52.5v151q0 33 19.5 52.5t52.5 19.5h119q114 0 194 80t80 192q0 115 -80 195t-194 80 q-110 0 -192 -80q-81 -79 -81 -195q0 -29 -18 -46t-47 -17t-46.5 17.5t-17.5 45.5zM248 84q0 35 24.5 59.5t59.5 24.5t59.5 -24.5t24.5 -59.5t-24.5 -59.5t-59.5 -24.5t-59.5 24.5t-24.5 59.5z" />
<glyph unicode="@" horiz-adv-x="1632" d="M76 625q0 154 58.5 289t157.5 235t234.5 158.5t288.5 58.5q154 0 289 -58.5t235.5 -158.5t158.5 -235.5t58 -288.5q0 -255 -136 -349q-54 -36 -133 -36q-137 0 -214 157q-47 -47 -116.5 -80.5t-141.5 -33.5q-144 0 -244 100t-100 244q0 142 100 243q99 101 244 101 t244 -101q100 -101 100 -243v-131q0 -55 37 -92t90 -37q144 0 144 256q0 127 -48.5 239.5t-131.5 195.5t-195.5 131t-239.5 48q-254 0 -433 -179q-83 -83 -131 -195.5t-48 -239.5t48 -239t131 -195q179 -179 433 -179q97 0 148.5 15.5t72.5 15.5t39.5 -14.5t18.5 -42.5 q0 -76 -194 -94q-48 -5 -85 -5q-154 0 -289 58.5t-234 158t-157.5 234.5t-58.5 289zM598 627q0 -92 62.5 -154.5t152.5 -62.5t152.5 60.5t64.5 154.5t-60.5 156.5t-154.5 62.5t-154.5 -62.5t-62.5 -154.5z" />
<glyph unicode="A" horiz-adv-x="1288" d="M70 57q0 18 6 31l510 1174q6 16 22.5 31.5t36.5 15.5q39 0 62 -47l505 -1174q5 -9 5 -30q-1 -20 -17 -38t-52 -18t-52 39l-164 375h-576l-163 -375q-17 -39 -53 -39t-53 18.5t-17 36.5zM412 543h465l-232 528z" />
<glyph unicode="B" horiz-adv-x="1001" d="M88 63v1182q0 27 18.5 45.5t45.5 18.5h364q131 0 223 -92q95 -95 95 -232t-119 -240q90 -51 144 -142t54 -188.5t-30.5 -170t-84.5 -126.5q-118 -118 -282 -118h-364q-27 0 -45.5 18.5t-18.5 44.5zM215 127h301q110 0 190 82q80 81 80 190q0 112 -80 193q-78 80 -190 80 h-301v-545zM215 799h301q79 0 134 59q55 58 55 133q0 77 -55 133q-55 58 -134 58h-301v-383z" />
<glyph unicode="C" horiz-adv-x="1310" d="M80 651q0 135 51 254t139 208t207 140.5t255 51.5t256 -53.5t210 -145.5q27 -27 27 -56.5t-18.5 -44t-46.5 -14t-74 42t-144 93t-209 51.5t-207 -41t-166 -113q-153 -156 -153 -373q0 -219 153 -371q70 -71 166.5 -112t208 -41t210.5 44t171 122q20 24 52 24q59 0 59 -59 q0 -33 -19 -51q-90 -98 -213 -152.5t-261 -54.5t-257 51t-207 139.5t-139 207t-51 253.5z" />
<glyph unicode="D" horiz-adv-x="1243" d="M86 63v1182q0 27 18.5 45.5t45.5 18.5h352q268 0 462 -192q191 -190 191 -462q0 -135 -51 -254.5t-140 -208.5q-192 -192 -462 -192h-352q-27 0 -45.5 18.5t-18.5 44.5zM213 127h289q217 0 372 155q154 154 154 373q0 218 -154 373q-152 154 -372 154h-289v-1055z" />
<glyph unicode="E" horiz-adv-x="903" d="M76 63v1182q0 27 18.5 45.5t44.5 18.5h623q27 0 45 -18.5t18 -45.5t-18.5 -45t-44.5 -18h-559v-457h372q27 0 45.5 -18.5t18.5 -44.5q0 -27 -18.5 -45.5t-45.5 -18.5h-372v-471h559q27 0 45 -18.5t18 -45.5t-18.5 -45t-44.5 -18h-623q-27 0 -45 18.5t-18 44.5z" />
<glyph unicode="F" horiz-adv-x="890" d="M70 63v1182q0 27 18 45.5t45 18.5h625q27 0 45 -18.5t18 -45.5t-18.5 -45t-44.5 -18h-561v-457h354q27 0 45 -18.5t18 -44.5q0 -27 -18 -45.5t-45 -18.5h-354v-535q0 -27 -18.5 -45t-45.5 -18t-45 18.5t-18 44.5z" />
<glyph unicode="G" horiz-adv-x="1425" d="M78 651q0 135 51 254t139 208t207 140.5t268.5 51.5t287.5 -74t226 -197q14 -23 15 -43q0 -20 -16.5 -39.5t-37.5 -19.5q-45 0 -65 29q-185 217 -424 217q-221 0 -371 -154q-153 -156 -153 -373q0 -219 153 -371q70 -71 166.5 -112t193.5 -41t174 25.5t142 70.5 q129 90 189 248h-285q-27 0 -45.5 18.5t-18.5 45.5t18.5 45t45.5 18h371q29 0 45 -19.5t16 -46.5q-14 -108 -77.5 -212.5t-148.5 -173.5q-182 -146 -415 -146q-135 0 -254 51t-207 139.5t-139 207t-51 253.5z" />
<glyph unicode="H" horiz-adv-x="1103" d="M98 63v1182q0 27 18.5 45.5t45.5 18.5t45 -18.5t18 -45.5v-575h654v575q0 27 18 45.5t45 18.5t45.5 -18.5t18.5 -45.5v-1182q0 -27 -18.5 -45t-45.5 -18t-45 18.5t-18 44.5v480h-654v-480q0 -27 -18.5 -45t-44.5 -18q-27 0 -45.5 18.5t-18.5 44.5z" />
<glyph unicode="I" horiz-adv-x="329" d="M100 63v1182q0 27 18.5 45.5t45.5 18.5t45 -18.5t18 -45.5v-1182q0 -27 -18.5 -45t-44.5 -18q-27 0 -45.5 18.5t-18.5 44.5z" />
<glyph unicode="J" horiz-adv-x="288" d="M-287 -307q0 27 18.5 45t66 18t105.5 24.5t100 67.5q91 93 91 224v1173q0 27 18.5 45.5t45.5 18.5t45 -18.5t18 -45.5v-1173q0 -182 -128.5 -312.5t-315.5 -130.5q-27 0 -45.5 18.5t-18.5 45.5z" />
<glyph unicode="K" horiz-adv-x="1067" d="M94 63v1182q0 27 18.5 45.5t45.5 18.5t45 -18.5t18 -45.5v-543l641 588q18 18 45 19q27 0 45.5 -18.5t18.5 -45.5t-19 -45l-440 -403l442 -701q11 -18 11 -35q0 -21 -17 -41q-18 -20 -50 -20t-50 31l-430 680l-197 -181v-467q0 -27 -18.5 -45t-44.5 -18q-27 0 -45.5 18.5 t-18.5 44.5z" />
<glyph unicode="L" horiz-adv-x="786" d="M70 63v1182q0 27 18 45.5t45 18.5t45.5 -18.5t18.5 -45.5v-1118h520q27 0 45 -18.5t18 -45.5t-18.5 -45t-44.5 -18h-584q-27 0 -45 18.5t-18 44.5z" />
<glyph unicode="M" horiz-adv-x="1572" d="M90 61l170 1194q4 23 21.5 38.5t51.5 15.5t50 -39l416 -1037l413 1037q16 39 50 39q64 0 73 -58l144 -1181v-11q0 -25 -16.5 -42t-42.5 -17t-44 15.5t-22 37.5l-115 942l-379 -952q-21 -47 -61 -47q-20 0 -37 15.5t-23 31.5l-387 963l-135 -951q-4 -25 -22.5 -40t-44 -13 t-43 18.5t-17.5 40.5z" />
<glyph unicode="N" d="M98 63v1182q0 27 18.5 45.5t43.5 18.5t36 -9.5t23 -25.5l705 -998v969q0 27 18.5 45.5t44.5 18.5q27 0 45.5 -18.5t18.5 -45.5v-1182q0 -27 -18.5 -45t-43.5 -18q-36 0 -63 43l-701 991v-971q0 -27 -18.5 -45t-44.5 -18q-27 0 -45.5 18.5t-18.5 44.5z" />
<glyph unicode="O" horiz-adv-x="1464" d="M80 651q0 135 51 254t139 208t207 140.5t254 51.5t254 -51.5t208 -140.5t140 -208t51 -254t-51 -253.5t-140 -207t-208 -139.5t-254 -51t-254 51t-207 139.5t-139 207t-51 253.5zM207 651q0 -219 153 -371q70 -71 166.5 -112t204.5 -41q217 0 373 153q153 149 153 371 q0 220 -153 373q-154 154 -373 154q-221 0 -371 -154q-153 -156 -153 -373z" />
<glyph unicode="P" horiz-adv-x="894" d="M72 63v1180q0 27 18.5 46.5t44.5 19.5h334q145 0 249 -104q103 -103 103 -247q0 -146 -103 -247q-105 -103 -249 -103h-270v-545q0 -27 -18.5 -45t-45.5 -18t-45 18.5t-18 44.5zM199 735h270q92 0 157.5 65.5t65.5 157.5q0 91 -66 158q-64 66 -157 66h-270v-447z" />
<glyph unicode="Q" horiz-adv-x="1460" d="M78 649q0 137 51 256t139 208t207 140.5t254 51.5t254 -51.5t208 -140.5t140 -208t51 -234.5t-26.5 -204.5t-74.5 -164q-100 -157 -263 -234q14 -14 38.5 -19.5t48 -11.5t40 -18.5t16.5 -41.5t-18.5 -47t-44.5 -18q-127 0 -209 106q-79 -18 -182 -18t-220.5 49t-208 137 t-145.5 207t-55 256zM205 651q0 -154 77.5 -277.5t204.5 -189.5l-4 43q0 113 73 190q71 75 173 75q98 0 171 -73t73 -171v-23l-6 -43q201 105 267 320q21 71 21 164.5t-40.5 189.5t-112.5 168q-154 154 -373 154q-221 0 -371 -154q-153 -156 -153 -373zM610 247 q0 -48 33 -82t84 -36h5q48 0 81 33q35 35 35 84t-35 84t-84 35t-84 -35t-35 -83z" />
<glyph unicode="R" horiz-adv-x="946" d="M92 63v1180q0 27 18.5 46.5t45.5 19.5h336q144 0 248 -104t104 -247q0 -127 -84 -226q-82 -97 -209 -120l311 -506q17 -28 17 -46.5t-15.5 -39t-39.5 -20.5q-42 0 -64 37l-350 571h-191v-545q0 -27 -18.5 -45t-44.5 -18q-27 0 -45.5 18.5t-18.5 44.5zM219 735h273 q90 0 157 65q66 65 66 158q0 92 -66 158t-157 66h-273v-447z" />
<glyph unicode="S" horiz-adv-x="987" d="M72 248q0 21 19.5 41t53 20t52.5 -33q32 -66 133 -112q83 -38 160 -38q59 0 114 22q108 41 158 138q24 48 24 103q0 144 -174 223q-53 25 -114 44t-130 47t-126 67q-129 89 -129 211q0 147 125 241q112 85 260 85q238 0 360 -168q12 -18 12 -45t-17 -46.5t-50 -19.5 t-55.5 37t-55.5 60.5t-66 36.5q-50 18 -109.5 18t-104.5 -10.5t-83 -33.5q-87 -51 -87 -155q0 -97 229 -175q151 -50 225 -88t120 -83q97 -95 97 -246q0 -163 -127 -277q-125 -112 -292 -112q-120 0 -239 58q-127 63 -173 153q-10 16 -10 37z" />
<glyph unicode="T" horiz-adv-x="944" d="M53 1245q0 27 18.5 45.5t45.5 18.5h710q27 0 45.5 -18.5t18.5 -45.5t-18.5 -45t-45.5 -18h-290v-1119q0 -27 -18.5 -45t-45.5 -18t-45 18.5t-18 44.5v1119h-293q-27 0 -45.5 18.5t-18.5 44.5z" />
<glyph unicode="U" horiz-adv-x="1095" d="M92 455v788q0 23 18.5 44.5t47.5 21.5t45 -20.5t16 -47.5v-786q0 -136 95 -231q97 -97 233 -97q132 0 231 97t99 231v788q0 23 18 44.5t47 21.5t45.5 -22.5t16.5 -45.5v-786q0 -186 -136 -321q-133 -134 -321 -134t-321.5 133.5t-133.5 321.5z" />
<glyph unicode="V" horiz-adv-x="1153" d="M70 1253.5q0 18.5 17 37t41 18.5q43 0 65 -39l385 -1032l380 1032q20 39 54.5 39t50.5 -18.5t16 -39t-4 -28.5l-436 -1176q-8 -18 -25.5 -32.5t-36.5 -14.5t-36 15.5t-23 31.5l-442 1176q-6 12 -6 30.5z" />
<glyph unicode="W" horiz-adv-x="1810" d="M82 1253.5q0 18.5 17.5 37t40.5 18.5q46 0 65 -39l385 -1032l250 1011q4 18 21.5 39t43.5 21q45 0 66 -60l254 -1011l381 1032q20 39 54 39t50 -18.5t16 -39t-4 -28.5l-436 -1176q-21 -47 -67 -47q-27 0 -44.5 15.5t-21.5 31.5l-248 954l-243 -954q-4 -18 -22.5 -32.5 t-44.5 -14.5q-44 0 -65 47l-442 1176q-6 12 -6 30.5z" />
<glyph unicode="X" horiz-adv-x="1503" d="M96 63q0 27 19 46l547 546l-547 547q-18 18 -19 45q0 27 18.5 45.5t45.5 18.5t45 -19l547 -547l546 547q18 18 45 19q27 0 45.5 -18.5t18.5 -45.5t-18 -45l-547 -547l547 -546q18 -18 18 -46q0 -27 -18.5 -45t-45.5 -18t-45 18l-546 547l-547 -547q-18 -18 -45 -18 t-45.5 18.5t-18.5 44.5z" />
<glyph unicode="Y" horiz-adv-x="1060" d="M70 1245q0 23 17 42.5t49 19.5t50 -27l344 -514l344 514q18 27 49.5 27t49.5 -19.5t18 -41t-10 -38.5l-387 -575v-570q0 -27 -18.5 -45t-45.5 -18t-45 18.5t-18 44.5v570l-385 575q-12 14 -12 37z" />
<glyph unicode="Z" horiz-adv-x="1116" d="M72 58q0 21 12 44l778 1080h-727q-27 0 -45 18.5t-18 44.5q0 27 18.5 45.5t44.5 18.5h846q27 0 45 -18.5t18 -40.5q0 -19 -16 -48l-780 -1075h733q27 0 45 -18.5t18 -45.5t-18 -45t-45 -18h-846q-27 0 -45 18.5t-18 39.5z" />
<glyph unicode="[" horiz-adv-x="548" d="M74 -262v1565q0 27 18.5 45t44.5 18h273q27 0 45 -18.5t18 -44.5q0 -27 -18.5 -45.5t-44.5 -18.5h-209v-1438h209q27 0 45 -18.5t18 -44.5q0 -27 -18.5 -45.5t-44.5 -18.5h-273q-27 0 -45 18.5t-18 45.5z" />
<glyph unicode="\" horiz-adv-x="630" d="M53 1298.5q0 14.5 17.5 35t41.5 20.5q53 0 66 -43l393 -1229q4 -12 4 -28t-17 -36t-42 -19q-52 2 -65 44l-394 1229q-4 12 -4 26.5z" />
<glyph unicode="]" horiz-adv-x="550" d="M76 -262q0 27 18.5 45t44.5 18h209v1438h-209q-27 0 -45 18.5t-18 45.5t18.5 45t44.5 18h273q27 0 45 -18.5t18 -44.5v-1565q0 -27 -18.5 -45.5t-44.5 -18.5h-273q-27 0 -45 18.5t-18 45.5z" />
<glyph unicode="^" horiz-adv-x="1282" d="M68 542.5q0 20.5 4 30t7 14.5t17.5 26.5t44 66.5t84 127t137 207t148 224t82 116.5t45.5 17.5t42 -15.5t28 -35.5q119 -182 202.5 -307t138 -207t85 -127t46 -66.5t18.5 -26.5t8 -13t5 -26.5t-16 -38.5t-46 -20t-46 27l-467 660l-445 -650q-29 -41 -59.5 -41t-46.5 18.5 t-16 39z" />
<glyph unicode="_" horiz-adv-x="1146" d="M96 63q0 27 18.5 45.5t45.5 18.5h827q27 0 45.5 -18.5t18.5 -45.5t-18.5 -45t-45.5 -18h-827q-27 0 -45.5 18.5t-18.5 44.5z" />
<glyph unicode="`" horiz-adv-x="417" d="M68 1370q-18 36 5 64t45 28q45 0 60 -30l170 -293q6 -16 6 -35t-17.5 -39.5t-51 -20.5t-47.5 31z" />
<glyph unicode="a" horiz-adv-x="1159" d="M84 494q0 207 142 352q144 145 356 145q196 0 343.5 -147.5t147.5 -349.5v-433q0 -27 -18.5 -45t-44.5 -18q-27 0 -45.5 18.5t-18.5 44.5v125q-68 -76 -163 -130t-201 -54t-195.5 37t-156.5 103q-146 141 -146 352zM211 494q0 -152 107.5 -259.5t259.5 -107.5 q148 0 254 105q108 105 112 260v10q0 72 -26 136q-28 68 -80 117q-108 107 -260 107q-151 0 -260 -107q-107 -106 -107 -261z" />
<glyph unicode="b" horiz-adv-x="1142" d="M76 63v1182q0 27 18.5 45.5t44.5 18.5q27 0 45.5 -18.5t18.5 -45.5v-442q68 74 162 128t200 56h10q99 0 185 -38q90 -40 158 -107q147 -148 147 -350q0 -200 -145 -346q-143 -146 -358.5 -146t-358.5 158v-95q0 -27 -18.5 -45t-45.5 -18t-45 18.5t-18 44.5zM203 475 q4 -145 113 -248q107 -102 253 -102q154 0 261.5 107.5t107.5 259.5q0 153 -107.5 260.5t-261.5 107.5q-148 0 -253 -104q-109 -107 -113 -264v-17z" />
<glyph unicode="c" horiz-adv-x="1028" d="M84 492q0 204 142 346q67 67 158.5 107t185.5 42h14q86 -1 146 -23q66 -24 112.5 -55.5t72 -63.5t25.5 -51.5t-18.5 -36t-43 -16.5t-59 32t-100.5 59.5t-141 27.5q-152 0 -259.5 -107.5t-107.5 -260.5q0 -152 107.5 -259.5t259.5 -107.5q148 0 258 104q18 18 44 18.5 t45 -17t19 -39t-23.5 -53.5t-70.5 -62q-116 -76 -272 -76q-205 0 -348 140q-146 141 -146 352z" />
<glyph unicode="d" horiz-adv-x="1142" d="M76 494q0 202 147.5 349.5t343.5 147.5q207 -7 371 -186v440q0 27 18.5 45.5t44.5 18.5q27 0 45.5 -18.5t18.5 -45.5v-1182q0 -27 -18.5 -45t-45.5 -18t-45 18.5t-18 44.5v97l-18 -19q-143 -139 -349 -139q-207 0 -351 146t-144 346zM203 494q0 -151 107 -260 q106 -107 261 -107q152 0 259 107q106 106 106 251v11q-2 78 -32 145.5t-79 116.5q-104 104 -254 104q-154 0 -261 -107t-107 -261z" />
<glyph unicode="e" d="M80 494q0 204 142.5 346.5t355.5 150.5q196 0 342 -145q149 -150 149 -348q0 -31 -20.5 -47.5t-42.5 -16.5h-795q20 -130 124 -219q103 -88 238 -88q150 0 258 104q18 18 46 19q27 0 45 -18.5t18 -45.5t-18 -45q-68 -76 -153 -107.5t-191.5 -31.5t-195.5 37t-156 103 q-146 141 -146 352zM213 561h723q-25 130 -126 214q-104 87 -237 87q-132 0 -236 -87q-99 -83 -124 -214z" />
<glyph unicode="f" horiz-adv-x="591" d="M55 932q0 27 18.5 45t45.5 18h84v43q0 112 77 191q79 80 193 80q27 0 45.5 -18.5t18.5 -45.5t-18.5 -45t-45.5 -18q-59 0 -101 -42t-42 -102v-43h139q27 0 45 -18.5t18 -44.5q0 -27 -18 -45.5t-45 -18.5h-139v-805q0 -27 -18.5 -45t-45.5 -18t-45 18.5t-18 44.5v805h-84 q-27 0 -45.5 18.5t-18.5 45.5z" />
<glyph unicode="g" horiz-adv-x="1159" d="M84 492q0 204 142.5 346.5t355.5 150.5q106 -2 200.5 -47t163.5 -123v90q0 27 18.5 45.5t45.5 18.5t45 -18.5t18 -45.5v-790q0 -200 -145 -347q-143 -145 -350 -145q-209 0 -351 142q-18 18 -18 44t19.5 45t45.5 19q27 0 43 -16q109 -109 261 -109q151 0 260 108 q108 106 108 259v45q-68 -76 -163 -120t-201 -44t-195.5 37t-156.5 103q-146 141 -146 352zM211 492q0 -152 107.5 -259.5t259.5 -107.5q145 0 254 102q106 98 114 248v31q-8 151 -114 251q-108 103 -254 103q-152 0 -259.5 -107.5t-107.5 -260.5z" />
<glyph unicode="h" horiz-adv-x="897" d="M80 63v1182q0 27 18.5 45.5t44.5 18.5q27 0 45.5 -18.5t18.5 -45.5v-344q103 90 239 90q153 0 262 -107q107 -106 107 -261v-560q0 -27 -18.5 -45t-44.5 -18q-27 0 -45.5 18.5t-18.5 44.5v560q0 98 -72 169q-69 70 -170 70q-96 0 -168 -68q-67 -63 -71 -161v-570 q0 -29 -17.5 -46t-45.5 -17t-45 18.5t-19 44.5z" />
<glyph unicode="i" horiz-adv-x="315" d="M74 1225q0 35 24.5 59.5t59.5 24.5t59.5 -24.5t24.5 -59.5t-24.5 -59.5t-59.5 -24.5t-59.5 24.5t-24.5 59.5zM94 63v869q0 27 18.5 45t45.5 18t45 -18.5t18 -44.5v-869q0 -27 -18.5 -45t-44.5 -18q-27 0 -45.5 18.5t-18.5 44.5z" />
<glyph unicode="j" horiz-adv-x="299" d="M-182 -307q0 27 18.5 45t65.5 18t88 27t64 63q36 57 36 117v969q0 27 18.5 45t45.5 18t45 -18.5t18 -44.5v-969q0 -115 -75 -211q-96 -123 -261 -123q-27 0 -45 18.5t-18 45.5zM70 1225q0 35 24.5 59.5t59.5 24.5t59.5 -24.5t24.5 -59.5t-25 -59.5t-59 -24.5 q-35 0 -59.5 24.5t-24.5 59.5z" />
<glyph unicode="k" horiz-adv-x="815" d="M78 63v1180q0 27 18.5 45.5t44.5 18.5q27 0 45.5 -18.5t18.5 -45.5v-680l413 412q18 18 46 18q27 0 45 -18.5t18 -44.5q0 -27 -18 -45l-295 -287l313 -504q8 -14 8 -34t-17.5 -41t-48 -21t-51.5 33l-296 475l-117 -117v-326q0 -27 -18.5 -45t-45.5 -18t-45 18.5t-18 44.5 z" />
<glyph unicode="l" horiz-adv-x="331" d="M102 63v1182q0 27 18.5 45.5t45.5 18.5t45 -18.5t18 -45.5v-1182q0 -27 -18 -45t-45 -18t-45.5 18.5t-18.5 44.5z" />
<glyph unicode="m" horiz-adv-x="1406" d="M96 63v869q0 27 18.5 45t45.5 18t45 -18.5t18 -44.5v-23q35 35 91.5 63.5t115.5 28.5q172 0 270 -139q104 139 273 139q139 0 237 -98q99 -99 99 -237v-603q0 -27 -18.5 -45t-45.5 -18t-45 18.5t-18 44.5v603q0 84 -62 147q-59 61 -147 61q-89 0 -147 -61 q-60 -64 -60 -147v-603q0 -27 -18.5 -45t-45.5 -18t-45 18.5t-18 44.5v603q-4 90 -64.5 149t-145.5 59t-143.5 -58t-62.5 -142v-611q0 -27 -18.5 -45t-44.5 -18q-27 0 -45.5 18.5t-18.5 44.5z" />
<glyph unicode="n" horiz-adv-x="925" d="M94 63v869q0 27 18.5 45t45.5 18t45 -18.5t18 -44.5v-27q103 90 240 90q154 0 261 -107t107 -261v-564q0 -27 -18 -45t-45 -18t-45.5 18.5t-18.5 44.5v564q0 100 -71 169q-71 70 -170 70q-95 0 -168 -68q-68 -62 -72 -161v-574q0 -27 -18.5 -45t-44.5 -18 q-27 0 -45.5 18.5t-18.5 44.5z" />
<glyph unicode="o" d="M80 494q0 204 142 346q145 145 352 149h10q97 0 181 -38q89 -40 157 -107q147 -148 147 -350q0 -200 -145 -346q-143 -146 -351 -146q-204 0 -347 140q-146 141 -146 352zM207 494q0 -152 107.5 -259.5t258.5 -107.5q154 0 261.5 107.5t107.5 259.5q0 155 -108 261 q-108 107 -261 107q-150 0 -259 -107q-107 -106 -107 -261z" />
<glyph unicode="p" horiz-adv-x="1140" d="M76 -307v1239q0 27 18.5 45t44.5 18q27 0 45.5 -18.5t18.5 -44.5v-103q143 160 366 160q208 0 351 -145q145 -147 145 -346q0 -203 -147.5 -350.5t-344.5 -147.5q-115 4 -209 58.5t-161 127.5v-493q0 -27 -18.5 -45.5t-45.5 -18.5t-45 18.5t-18 45.5zM203 498 q4 -156 113 -264q104 -105 253 -105q154 0 261.5 107.5t107.5 261.5q0 153 -108 259q-108 107 -261 107q-146 0 -253 -102q-109 -103 -113 -250v-14z" />
<glyph unicode="q" horiz-adv-x="1140" d="M76 498q0 199 144 346q144 145 357.5 145t360.5 -160v103q0 27 18.5 45t44.5 18q27 0 45.5 -18.5t18.5 -44.5v-1239q0 -27 -18.5 -45.5t-45.5 -18.5t-45 18.5t-18 45.5v493q-164 -179 -371 -186q-196 0 -343.5 147.5t-147.5 350.5zM203 498q0 -153 107 -262 q106 -107 261 -107q151 0 254 105q107 108 111 262v10q0 72 -26 134q-29 67 -80 117q-108 107 -259 107q-154 0 -261 -107t-107 -259z" />
<glyph unicode="r" horiz-adv-x="661" d="M72 63v869q0 27 18.5 45t44.5 18q27 0 45.5 -18.5t18.5 -44.5v-101q66 72 158 118t200 46q33 0 52.5 -18.5t19.5 -44.5q0 -27 -19.5 -45.5t-73 -18.5t-117 -28.5t-111.5 -77.5q-105 -107 -109 -246v-453q0 -27 -18.5 -45t-45.5 -18t-45 18.5t-18 44.5z" />
<glyph unicode="s" horiz-adv-x="892" d="M84 249q0 20 17.5 40t42.5 20q50 0 71 -49q27 -66 91.5 -99.5t150 -33.5t156.5 46t71 122t-69.5 123t-194.5 64t-216 77.5t-91 184t95 186.5t221.5 63t196.5 -33.5t101 -66.5t31 -67q0 -76 -66 -76q-39 0 -58 42q-36 80 -192 80q-88 0 -125 -20q-77 -42 -77 -117 q0 -83 134 -115q36 -8 90 -17t120.5 -32.5t117.5 -60.5q109 -80 109 -207q0 -135 -107 -220q-105 -83 -248 -83t-240 59.5t-130 163.5q-2 6 -2 26z" />
<glyph unicode="t" horiz-adv-x="626" d="M51 932q0 27 18.5 45t45.5 18h135v250q0 27 18.5 45.5t44.5 18.5q27 0 45.5 -18.5t18.5 -45.5v-250h135q27 0 45 -18.5t18 -44.5q0 -27 -18 -45.5t-45 -18.5h-135v-805q0 -27 -18.5 -45t-45.5 -18t-45 18.5t-18 44.5v805h-135q-27 0 -45.5 18.5t-18.5 45.5z" />
<glyph unicode="u" horiz-adv-x="927" d="M96 369v561q0 27 18.5 45t45.5 18t45 -18.5t18 -44.5v-561q0 -100 72 -171q71 -69 170 -69q96 0 167 67q67 64 73 162v572q0 27 18 45t45 18t45 -18.5t18 -44.5v-867q0 -27 -18 -45t-45 -18t-45 18.5t-18 44.5v27q-103 -90 -240 -90q-155 0 -261 108q-108 109 -108 261z " />
<glyph unicode="v" horiz-adv-x="927" d="M72 932q0 61 59 61q47 0 62 -37l266 -727l276 727q14 37 50.5 37t53.5 -19.5t17 -36.5t-4 -25.5t-17.5 -46.5t-48.5 -134q-103 -277 -260 -680q-18 -51 -67 -51q-29 0 -46.5 17.5t-23.5 33.5q-119 327 -199 544q-112 306 -115 313t-3 24z" />
<glyph unicode="w" horiz-adv-x="1286" d="M88 937q0 22 15.5 39t40.5 17q52 0 65 -37l266 -727l98 258q-151 409 -151 416q-6 12 -6 29q0 61 59 61q47 0 62 -37l104 -297l111 297q6 16 22.5 26.5t40 10.5t40.5 -19.5t17 -36.5t-4 -24.5t-11 -29t-25.5 -69.5t-48 -128t-74.5 -201l94 -256l276 727q14 37 50.5 37 t53.5 -19.5t17 -36.5t-4 -25.5t-17.5 -46.5t-48.5 -134q-103 -277 -260 -680q-18 -51 -67 -51q-29 0 -46.5 17.5t-34 61.5t-38.5 110.5t-43 123.5q-23 -57 -46.5 -123.5t-41.5 -114t-33.5 -61.5t-44.5 -14t-46 17.5t-23 33.5q-177 485 -228 622q-84 227 -87 234.5t-3 29.5z " />
<glyph unicode="x" horiz-adv-x="1171" d="M94 61q0 25 19 48l383 387l-381 387q-20 25 -20.5 50.5t20 41.5t46.5 16t42 -16l383 -389l383 389q16 16 42 16t45 -16.5t19 -44t-18 -47.5l-383 -387l385 -387q18 -23 18 -48t-19.5 -43t-45 -18t-43.5 20l-383 386l-383 -386q-18 -20 -44 -20t-45.5 18.5t-19.5 42.5z " />
<glyph unicode="y" horiz-adv-x="921" d="M68 932q0 61 59 61q48 0 61 -37l267 -727l276 727q6 16 22.5 26.5t40 10.5t41 -19.5t17.5 -36.5t-6 -30l-467 -1237q-16 -41 -51 -41t-52.5 19.5t-17.5 35.5q0 19 4 31l123 336l-311 852q-6 12 -6 29z" />
<glyph unicode="z" horiz-adv-x="1107" d="M88 61q0 25 18 48l699 757h-651q-27 0 -45.5 18.5t-18.5 45.5t18.5 45t45.5 18h798q23 0 42.5 -18.5t19.5 -42.5q0 -25 -21 -49l-690 -756h653q27 0 45.5 -18.5t18.5 -45.5t-18.5 -45t-45.5 -18h-804q-27 0 -45.5 18.5t-18.5 42.5z" />
<glyph unicode="{" horiz-adv-x="727" d="M59 653q0 27 18.5 45.5t45.5 18.5h115v428q0 151 104 257q109 111 254 111q33 0 52.5 -18t19.5 -45t-18.5 -45.5t-56.5 -18.5t-82 -19t-77 -52q-69 -69 -69 -170v-981q0 -101 69 -170q72 -72 170 -72q27 0 45.5 -18.5t18.5 -44.5q0 -27 -18.5 -45.5t-45.5 -18.5 q-151 0 -259 108q-107 107 -107 261v426h-115q-27 0 -45.5 18.5t-18.5 44.5z" />
<glyph unicode="|" horiz-adv-x="329" d="M100 -262v1567q0 27 18.5 45t45.5 18t45 -18.5t18 -44.5v-1567q0 -27 -18.5 -45.5t-44.5 -18.5q-27 0 -45.5 18.5t-18.5 45.5z" />
<glyph unicode="}" horiz-adv-x="727" d="M59 -141q0 27 18.5 45t56.5 18t82 19.5t77 52.5q69 69 69 170v981q0 101 -69 170q-71 71 -170 71q-27 0 -45.5 18.5t-18.5 45.5t19.5 45t73 18t119 -30.5t114.5 -80.5q104 -106 104 -257v-428h115q27 0 45.5 -18.5t18.5 -45.5t-18.5 -45t-45.5 -18h-115v-426 q0 -154 -107 -261q-108 -108 -259 -108q-27 0 -45.5 18.5t-18.5 45.5z" />
<glyph unicode="~" horiz-adv-x="1079" d="M88 565q0 25 18 43q77 103 172 146q35 16 65 16t48.5 -2t36.5 -8t39.5 -16.5t53.5 -26.5t59.5 -35.5t53.5 -35.5q56 -34 99 -34t69.5 22.5t46 50.5t38 50.5t45.5 22.5t41 -19.5t14 -48.5t-25.5 -65.5t-63.5 -65.5q-85 -65 -161 -65q-75 0 -112 21.5t-79 49t-89 56 t-94.5 28.5t-76 -22.5t-52 -48t-45 -48t-43.5 -22.5t-40 16.5t-18 40.5z" />
<glyph unicode="&#xa1;" horiz-adv-x="413" d="M123 952q0 -35 24.5 -59.5t59.5 -24.5t59.5 24.5t24.5 59.5t-25 59.5t-59 24.5q-35 0 -59.5 -24.5t-24.5 -59.5zM143 -209q0 -27 18.5 -45.5t45.5 -18.5t45 18.5t18 45.5v835q0 27 -18.5 45.5t-44.5 18.5q-27 0 -45.5 -18.5t-18.5 -45.5v-835z" />
<glyph unicode="&#xa2;" horiz-adv-x="989" d="M63 489q0 181 114 315q112 133 290 171v201q0 29 20.5 49t50.5 20t49 -20.5t19 -48.5v-193q130 -15 228 -87q86 -64 86 -101q0 -23 -18.5 -39.5t-43.5 -16.5t-56 28q-72 66 -196 87v-729q119 16 209 102q18 18 44 18.5t45.5 -17t19.5 -40t-21.5 -51t-61.5 -57.5 q-95 -69 -235 -80v-133q0 -29 -19.5 -49.5t-49 -20.5t-50 20.5t-20.5 49.5v139q-175 28 -288 162q-116 136 -116 321zM190 489q0 -128 78 -227q79 -101 199 -129v713q-124 -34 -199 -129q-78 -99 -78 -228z" />
<glyph unicode="&#xa3;" horiz-adv-x="1126" d="M59 528q0 27 18.5 45.5t45.5 18.5h92v383q0 115 75 211q96 123 261 123q27 0 45 -18.5t18 -45.5t-18 -45t-65.5 -18t-88.5 -28t-64 -62q-36 -56 -36 -117v-383h102q27 0 45.5 -18.5t18.5 -45.5t-18.5 -45t-45.5 -18h-102v-338h662q27 0 45 -18.5t18 -45.5t-18.5 -45 t-44.5 -18h-725q-25 0 -44.5 18.5t-19.5 44.5v402h-92q-27 0 -45.5 18.5t-18.5 44.5z" />
<glyph unicode="&#xa4;" horiz-adv-x="1173" d="M92 689.5q0 216.5 156 363.5l-139 204q-14 29 -15 48q0 18 15.5 38.5t50.5 20.5t55 -33l137 -205q117 64 231 64t222 -53l137 194q25 33 56.5 33t48 -19.5t16.5 -44t-16 -43.5l-138 -192q78 -70 125 -166t47 -207q0 -223 -174 -375q49 -72 78 -114.5t43 -65t25.5 -39 t11.5 -39.5t-18.5 -42t-50.5 -19t-48 29q-10 16 -25.5 39.5t-44 67.5t-77.5 116q-104 -49 -223 -49t-228 57l-137 -231q-18 -29 -49 -29t-48.5 18.5t-17.5 41.5t11 42l139 230q-156 143 -156 359.5zM221 692q0 -151 108 -259q107 -107 259 -107q154 0 261 107t107 259 q0 153 -107 262q-106 107 -261 107q-153 0 -259 -107q-108 -110 -108 -262z" />
<glyph unicode="&#xa5;" horiz-adv-x="1085" d="M70 1250q0 17 16 38t47 21t55 -33l353 -508l354 508q21 33 53.5 33t49 -19.5t16.5 -42.5t-17 -43l-370 -516h217q27 0 45 -18.5t18 -44.5q0 -27 -18.5 -45.5t-44.5 -18.5h-240v-127h240q27 0 45 -18.5t18 -44.5q0 -27 -18.5 -45.5t-44.5 -18.5h-240v-244q0 -27 -18.5 -45 t-44.5 -18q-27 0 -45.5 18.5t-18.5 44.5v244h-237q-27 0 -45.5 18.5t-18.5 45.5t18.5 45t45.5 18h237v127h-237q-27 0 -45.5 18.5t-18.5 45.5t18.5 45t45.5 18h213l-369 516q-14 29 -14 46z" />
<glyph unicode="&#xa6;" horiz-adv-x="329" d="M100 -311v1609q0 27 18.5 45.5t45.5 18.5t45 -18.5t18 -45.5v-1609q0 -27 -18.5 -45.5t-44.5 -18.5q-27 0 -45.5 18.5t-18.5 45.5z" />
<glyph unicode="&#xa7;" horiz-adv-x="995" d="M82 445q0 181 143 305q-129 94 -129 235q0 136 115 229q117 95 276 95q158 0 274 -92q118 -94 118 -224q0 -33 -17.5 -51t-44.5 -18t-45 17t-18 48t-20.5 67t-56.5 64q-80 64 -190 64q-105 0 -188 -60q-78 -55 -78 -126.5t32 -105.5t87 -75q78 31 158 31t154.5 -33 t129.5 -88q121 -119 121 -291q0 -170 -121 -291q129 -94 129 -235q0 -137 -115 -229q-118 -95 -276 -95q-161 0 -274 92q-117 95 -117 224q0 33 17.5 51t43.5 18q27 0 45.5 -17t18.5 -48t20.5 -67t56.5 -65q80 -63 189 -63q107 0 188 59q78 57 78 140q0 55 -30.5 90 t-77.5 70q-84 -43 -178 -43t-169 31.5t-131 87.5q-118 118 -118 299zM209 435q0 -58 22.5 -109.5t61.5 -89.5q85 -84 201.5 -84t198.5 84q83 84 83 200q0 117 -83 200t-199 83t-201 -83q-84 -82 -84 -201z" />
<glyph unicode="&#xa8;" horiz-adv-x="675" d="M92 1518q0 35 24.5 59.5t59.5 24.5t59.5 -25t24.5 -59q0 -35 -24.5 -59.5t-59.5 -24.5t-59.5 24.5t-24.5 59.5zM416 1518q0 35 24.5 59.5t59.5 24.5t59.5 -25t24.5 -59q0 -35 -24.5 -59.5t-59.5 -24.5t-59.5 24.5t-24.5 59.5z" />
<glyph unicode="&#xa9;" horiz-adv-x="1640" d="M80 662q0 154 58.5 288.5t157.5 235t234 159t289 58.5t289 -58.5t235.5 -159t159 -235.5t58.5 -288q0 -154 -58.5 -289t-159 -234.5t-235.5 -158t-289 -58.5t-289 58.5t-234 158t-157.5 234.5t-58.5 289zM207 659q0 -254 179 -433t433 -179q127 0 239.5 48t195.5 131 t131.5 194.5t48.5 238.5t-48.5 240t-131.5 196t-195.5 131t-239.5 48q-254 0 -433 -179q-83 -83 -131 -196t-48 -240zM467 662q0 141 102 243q103 103 244 103q130 0 221 -82q21 -19 29 -31q20 -18 20 -44t-15 -43t-40 -17t-47.5 13t-48.5 30q-64 45 -113 45t-89 -17.5 t-68 -47.5q-64 -67 -64 -157t62.5 -152.5t154.5 -62.5t152 60q18 20 46 20t45 -19.5t17 -49t-29.5 -56t-71.5 -45.5q-85 -37 -159 -37t-136.5 28t-109.5 75q-102 102 -102 244z" />
<glyph unicode="&#xaa;" horiz-adv-x="921" d="M84 985q0 160 108 269q111 110 271 110q156 0 264 -112q111 -114 111 -267v-330q0 -20 -15.5 -41.5t-48.5 -21.5t-48 21.5t-15 41.5v76q-53 -57 -108.5 -89t-137.5 -32t-150.5 29t-120.5 79q-110 107 -110 267zM213 987q0 -103 73 -177q71 -73 177 -73q104 0 177 73 t73 177t-73 177t-177 73q-106 0 -177 -73q-73 -74 -73 -177z" />
<glyph unicode="&#xab;" horiz-adv-x="1093" d="M86 485q0 27 18 45l439 412q18 18 45 19q27 0 45 -18.5t18 -45.5t-18 -45l-391 -367l391 -372q18 -18 18 -45t-18.5 -45.5t-44.5 -18.5q-27 0 -45 19l-437 415q-20 20 -20 47zM453 485q0 27 18 45l438 412q18 18 45 19q27 0 45.5 -18.5t18.5 -45.5t-19 -45l-391 -367 l391 -372q18 -18 19 -45q0 -27 -18.5 -45.5t-45.5 -18.5t-45 19l-438 417q-18 18 -18 45z" />
<glyph unicode="&#xac;" horiz-adv-x="1087" d="M72 637q0 27 18.5 45t44.5 18h817q27 0 45.5 -18t18.5 -45v-291q0 -27 -18.5 -45t-45.5 -18t-45 18t-18 45v227h-754q-27 0 -45 18.5t-18 45.5z" />
<glyph unicode="&#xad;" horiz-adv-x="950" d="M96 637q0 27 18.5 45t45.5 18h631q27 0 45 -18t18 -45t-18.5 -45.5t-44.5 -18.5h-631q-27 0 -45.5 18.5t-18.5 45.5z" />
<glyph unicode="&#xae;" horiz-adv-x="1640" d="M80 651q0 154 58.5 289t157.5 235.5t234 159t289 58.5t289 -58.5t235.5 -159t159 -235.5t58.5 -289t-58.5 -289t-159 -234t-235.5 -157.5t-289 -58.5t-289 58.5t-234 157.5t-157.5 234.5t-58.5 288.5zM207 649q0 -254 179 -433t433 -179q127 0 239.5 48t195.5 131 t131.5 194.5t48.5 238.5t-48.5 239.5t-131.5 195.5t-195.5 131.5t-239.5 48.5t-238.5 -48.5t-194.5 -131.5t-131 -195.5t-48 -239.5zM672 346v295q4 149 110 261q107 114 260 114q29 0 47.5 -18.5t18.5 -47.5t-18.5 -47t-59.5 -19t-85 -21.5t-75 -53.5q-67 -70 -71 -168 v-295q0 -27 -18.5 -45t-45.5 -18t-45 18t-18 45z" />
<glyph unicode="&#xaf;" horiz-adv-x="796" d="M78 1206q0 27 18.5 45.5t44.5 18.5h461q27 0 45.5 -18.5t18.5 -45.5t-18.5 -45t-45.5 -18h-461q-27 0 -45 18.5t-18 44.5z" />
<glyph unicode="&#xb0;" horiz-adv-x="923" d="M80 928q0 161 112 271q113 112 269 112q159 0 271 -112t112 -271q0 -156 -112 -270q-110 -111 -271 -111q-158 0 -269.5 111.5t-111.5 269.5zM207 928q0 -107 73.5 -180.5t180.5 -73.5q105 0 180 74q76 74 76 180q0 104 -76 180t-180 76q-106 0 -181 -76 q-73 -75 -73 -180z" />
<glyph unicode="&#xb1;" horiz-adv-x="878" d="M59 330q0 27 18.5 45t45.5 18h631q27 0 45 -18.5t18 -44.5q0 -27 -18.5 -45.5t-44.5 -18.5h-631q-27 0 -45.5 18.5t-18.5 45.5zM59 848q0 27 18.5 45t45.5 18h252v254q0 27 18.5 45.5t44.5 18.5q27 0 45.5 -18.5t18.5 -45.5v-254h254q27 0 45 -18.5t18 -44.5 q0 -27 -18.5 -45.5t-44.5 -18.5h-254v-254q0 -27 -18.5 -45t-45.5 -18t-45 18.5t-18 44.5v254h-252q-27 0 -45.5 18.5t-18.5 45.5z" />
<glyph unicode="&#xb2;" horiz-adv-x="825" d="M84 594q0 37 35 65q135 106 211 168l114 93q45 37 64 51q72 53 72 98q0 82 -110 109q-30 8 -57.5 8t-55 -7.5t-51.5 -19.5q-56 -27 -59 -69t-21.5 -60t-42.5 -18t-44 17.5t-20 56t23.5 82.5t63.5 76q86 69 206 69q121 0 208 -72q87 -73 87 -172q0 -53 -29 -95 t-57.5 -68.5t-62.5 -55.5q-82 -70 -236 -188h362q25 -2 42 -20.5t17 -44.5t-17 -43t-42 -19h-537q-20 0 -41.5 15t-21.5 44z" />
<glyph unicode="&#xb3;" horiz-adv-x="694" d="M82 639q0 27 18.5 45t44.5 18q27 0 45.5 -18t18.5 -60t39 -82t98 -40t99 40t40 95t-38.5 98t-100.5 43q-27 0 -44 18.5t-17 45.5t17 44t44 17q59 0 99 41t40 98t-39.5 97.5t-99.5 40.5q-59 0 -98 -40t-39 -82.5t-18.5 -60.5t-45.5 -18t-45 18.5t-18 59t20.5 89t56.5 85.5 q76 78 187 78q112 0 188 -78q78 -79 78 -195.5t-94 -193.5q94 -81 94 -203q0 -99 -72 -180q-76 -86 -194 -86q-111 0 -187 77q-77 79 -77 189z" />
<glyph unicode="&#xb4;" horiz-adv-x="415" d="M59 1105.5q0 18.5 7 31.5l170 295q16 31 49 30.5t50 -21t17 -40.5t-6 -33l-170 -293q-16 -33 -49 -33t-50.5 22.5t-17.5 41z" />
<glyph unicode="&#xb6;" horiz-adv-x="329" d="M100 63v1235q0 27 18.5 45.5t45.5 18.5t45 -18.5t18 -45.5v-1235q0 -27 -18.5 -45t-44.5 -18q-27 0 -45.5 18.5t-18.5 44.5z" />
<glyph unicode="&#xb7;" horiz-adv-x="309" d="M82 496q0 31 20.5 52t51.5 21t52 -21.5t21 -51.5q0 -31 -21.5 -51.5t-51.5 -20.5q-31 0 -51.5 20.5t-20.5 51.5z" />
<glyph unicode="&#xb8;" horiz-adv-x="493" d="M68 -199q0 23 17 40.5t44 17.5t37 -18.5t18.5 -42t19.5 -42t40 -18.5t47 18.5t18 48t-18.5 40t-42 18.5t-42 20.5t-18.5 46.5v191h115v-150q53 -18 87 -64t34 -113t-52.5 -119t-125.5 -52q-74 0 -126 52.5t-52 125.5z" />
<glyph unicode="&#xb9;" horiz-adv-x="518" d="M74 1088q0 42 30 61l230 145q20 14 47 15q27 0 45 -16.5t18 -45.5v-641q0 -27 -18 -45t-45 -18t-45.5 18.5t-18.5 44.5v524l-147 -90q-16 -10 -36 -10t-40 17.5t-20 40.5z" />
<glyph unicode="&#xba;" horiz-adv-x="921" d="M80 928q0 159 112 269q113 112 269 112q157 0 269 -112t112 -269q0 -156 -112 -270q-110 -111 -269 -111q-158 0 -269.5 111.5t-111.5 269.5zM207 927q0 -52 20.5 -98.5t54.5 -80.5q74 -74 179 -74q103 0 179 74q75 74 75 180q0 104 -75 179t-179 75q-106 0 -179 -75 q-75 -76 -75 -180z" />
<glyph unicode="&#xbb;" horiz-adv-x="1093" d="M86 68q0 27 18 45l392 372l-392 367q-18 18 -18 45t18.5 45.5t45.5 18.5t45 -19l438 -412q18 -18 18 -45t-18 -45l-438 -417q-18 -18 -45 -19q-27 0 -45.5 18.5t-18.5 45.5zM453 68q0 27 18 45l391 372l-391 367q-18 18 -18 45t18 45.5t45 18.5t45 -19l438 -412 q18 -18 19 -45q0 -27 -21 -47l-436 -415q-18 -18 -45 -19q-27 0 -45 18.5t-18 45.5z" />
<glyph unicode="&#xbc;" horiz-adv-x="1187" d="M72 1128q0 43 30 62l230 145q20 14 47 15q27 0 45 -16.5t18 -45.5v-641q0 -27 -18 -45t-45 -18t-45.5 18.5t-18.5 44.5v524l-147 -90q-16 -10 -36 -10t-40 17.5t-20 39.5zM330 53q0 18 4 27l409 1229q6 20 24.5 32.5t43.5 12.5t40 -19.5t15 -37t-2 -23.5l-409 -1231 q-16 -45 -54.5 -45t-54.5 18.5t-16 36.5zM651 294.5q0 20.5 2 27.5l131 432q12 45 50.5 45t55.5 -19.5t17 -38t-2 -24.5l-104 -352h127v110q0 27 18.5 45.5t44.5 18.5q27 0 45.5 -18.5t18.5 -45.5v-110q27 0 45 -18.5t18 -45.5t-18.5 -45t-44.5 -18v-172q0 -27 -18.5 -45.5 t-45.5 -18.5t-45 18.5t-18 45.5v172h-209q-27 0 -47.5 18t-20.5 38.5z" />
<glyph unicode="&#xbd;" horiz-adv-x="1411" d="M70 1128q0 43 30 62l230 145q20 14 47 15q27 0 45 -16.5t18 -45.5v-641q0 -27 -18.5 -45t-44.5 -18q-27 0 -45.5 18.5t-18.5 44.5v524l-147 -90q-16 -10 -36 -10t-40 17.5t-20 39.5zM328 53q0 18 4 27l409 1229q6 20 24.5 32.5t43.5 12.5t40 -19.5t15 -37t-2 -23.5 l-409 -1231q-16 -45 -54.5 -45t-54.5 18.5t-16 36.5zM682 60q0 37 35 65q168 132 269 214.5t120 96.5q72 53 72 99q0 55 -56 87q-48 29 -93.5 29t-73 -7t-51.5 -20q-56 -28 -59 -69t-21.5 -59.5t-42.5 -18.5t-44 17.5t-20 56.5t23.5 83t63.5 76q87 68 206 68q121 0 208 -72 q87 -71 87 -171q0 -53 -29 -95.5t-57.5 -69t-62.5 -55.5q-59 -50 -236 -188h362q25 -2 42 -20.5t17 -44.5t-17 -43t-42 -19h-537q-20 0 -41.5 15.5t-21.5 44.5z" />
<glyph unicode="&#xbe;" horiz-adv-x="1316" d="M72 694q0 27 18.5 45.5t44.5 18.5q27 0 45.5 -18.5t18.5 -60.5t38.5 -82t98.5 -40q59 0 99 40t40 96t-39 96.5t-83 42.5q-79 4 -79 65q0 27 17.5 44t44.5 17q59 0 99 41t40 99q0 57 -40 97t-99 40t-98 -40t-39 -82t-18.5 -60.5t-45.5 -18.5t-45 18.5t-18 59.5t20.5 89 t55.5 85q75 78 188 78q110 0 188 -78t78 -195t-94 -194q94 -81 94 -203q0 -99 -72 -180q-76 -86 -194 -86q-113 0 -188 78q-76 80 -76 188zM461 53q0 18 4 27l409 1229q14 45 64 45q29 0 44 -19.5t15 -37t-2 -23.5l-409 -1231q-16 -45 -54.5 -45t-54.5 18.5t-16 36.5z M776 294.5q0 20.5 2 27.5l131 432q12 45 50.5 45t55.5 -19.5t17 -38t-2 -24.5l-104 -352h127v110q0 27 18.5 45.5t44.5 18.5q27 0 45.5 -18.5t18.5 -45.5v-110q27 0 45 -18.5t18 -45.5t-18.5 -45t-44.5 -18v-172q0 -27 -18.5 -45.5t-45.5 -18.5t-45 18.5t-18 45.5v172h-209 q-27 0 -47.5 18t-20.5 38.5z" />
<glyph unicode="&#xbf;" horiz-adv-x="935" d="M-10 86q0 166 117.5 283.5t283.5 117.5h64v96q0 33 18.5 52.5t44.5 19.5q27 0 45.5 -19.5t18.5 -52.5v-151q0 -33 -19.5 -52.5t-52.5 -19.5h-119q-114 0 -194 -80t-80 -192q0 -115 80 -195t194 -80q110 0 192 80q81 79 81 195q0 29 18 46t47 17t46.5 -17.5t17.5 -45.5 q0 -168 -118 -286t-284 -118q-164 0 -283 118q-118 116 -118 284zM434 909q0 35 24.5 59.5t59.5 24.5t59.5 -24.5t24.5 -59.5t-24.5 -59.5t-59.5 -24.5t-59.5 24.5t-24.5 59.5z" />
<glyph unicode="&#xc0;" horiz-adv-x="1288" d="M70 55q0 18 6 31l510 1174q6 16 22.5 31.5t36.5 15.5q39 0 62 -47l505 -1174q4 -8 4.5 -29t-16 -39t-52.5 -18t-52 39l-164 375h-576l-163 -375q-17 -39 -53 -39t-53 18.5t-17 36.5zM402 1724q-18 36 5 64t45 28q45 0 60 -30l170 -293q6 -16 6 -35t-17.5 -39.5t-51 -20.5 t-47.5 31zM412 541h465l-232 528z" />
<glyph unicode="&#xc1;" horiz-adv-x="1288" d="M70 57q0 18 6 31l510 1174q6 16 22.5 31.5t36.5 15.5q39 0 62 -47l505 -1174q4 -8 4.5 -29t-16 -39t-52.5 -18t-52 39l-164 375h-576l-163 -375q-17 -39 -53 -39t-53 18.5t-17 36.5zM412 543h465l-232 528zM579 1457.5q0 18.5 7 31.5l170 295q16 31 49 30.5t50 -21 t17 -40.5t-6 -33l-170 -293q-16 -33 -49 -33t-50.5 22.5t-17.5 41z" />
<glyph unicode="&#xc2;" horiz-adv-x="1288" d="M70 57q0 18 6 31l510 1174q6 16 22.5 31.5t36.5 15.5q39 0 62 -47l505 -1174q4 -8 4.5 -29t-16 -39t-52.5 -18t-52 39l-164 375h-576l-163 -375q-17 -39 -53 -39t-53 18.5t-17 36.5zM295 1415q0 27 19 45l284 273q18 18 45 18t45 -18l287 -268q18 -18 19 -45 q0 -27 -18.5 -45.5t-45.5 -18.5t-45 18l-242 228l-239 -232q-18 -18 -45 -18t-45.5 18.5t-18.5 44.5zM412 543h465l-232 528z" />
<glyph unicode="&#xc3;" horiz-adv-x="1288" d="M70 57q0 18 6 31l510 1174q6 16 22.5 31.5t36.5 15.5q39 0 62 -47l505 -1174q4 -8 4.5 -29t-16 -39t-52.5 -18t-52 39l-164 375h-576l-163 -375q-17 -39 -53 -39t-53 18.5t-17 36.5zM229 1457.5q0 23.5 26.5 58t65.5 67.5q95 80 170 80q62 0 167 -79q40 -30 75 -54.5 t68.5 -24.5t60.5 22.5t46 50.5t37.5 50.5t45.5 22.5t41 -19.5t14 -48.5t-25.5 -65.5t-63.5 -65.5q-85 -65 -161 -65q-43 0 -81.5 24.5t-76.5 53t-74 53t-67 24.5t-53 -12t-42.5 -30.5t-37 -39.5t-30.5 -37q-14 -23 -41.5 -22.5t-45.5 17t-18 40zM412 543h465l-232 528z" />
<glyph unicode="&#xc4;" horiz-adv-x="1288" d="M70 57q0 18 6 31l510 1174q6 16 22.5 31.5t36.5 15.5q39 0 62 -47l505 -1174q4 -8 4.5 -29t-16 -39t-52.5 -18t-52 39l-164 375h-576l-163 -375q-17 -39 -53 -39t-53 18.5t-17 36.5zM395 1479q0 35 24.5 59.5t59.5 24.5t59.5 -25t24.5 -59q0 -35 -24.5 -59.5t-59.5 -24.5 t-59.5 24.5t-24.5 59.5zM412 543h465l-232 528zM719 1479q0 35 24.5 59.5t59.5 24.5t59.5 -25t24.5 -59q0 -35 -24.5 -59.5t-59.5 -24.5t-59.5 24.5t-24.5 59.5z" />
<glyph unicode="&#xc5;" horiz-adv-x="1288" d="M70 57q0 18 6 31l510 1174q6 16 22.5 31.5t36.5 15.5q39 0 62 -47l505 -1174q4 -8 4.5 -29t-16 -39t-52.5 -18t-52 39l-164 375h-576l-163 -375q-17 -39 -53 -39t-53 18.5t-17 36.5zM412 543h465l-232 528zM451 1560q0 82 56 139.5t138 57.5t139.5 -57.5t57.5 -139.5 t-57.5 -138t-139.5 -56t-138 56t-56 138zM574 1560q0 -33 19.5 -52t51.5 -19q33 0 53.5 19t20.5 52t-20.5 53.5t-53.5 20.5t-52 -20.5t-19 -53.5z" />
<glyph unicode="&#xc6;" horiz-adv-x="1961" d="M93 57q0 18 6 31l510 1174q6 16 22.5 31.5t36.5 15.5q39 0 62 -47l505 -1174q4 -8 4.5 -29t-16 -39t-52.5 -18t-52 39l-164 375h-576l-163 -375q-17 -39 -53 -39t-53 18.5t-17 36.5zM435 543h465l-232 528zM1112 63v1182q0 27 18.5 45.5t44.5 18.5h623q27 0 45 -18.5 t18 -45.5t-18.5 -45t-44.5 -18h-559v-457h372q27 0 45.5 -18.5t18.5 -44.5q0 -27 -18.5 -45.5t-45.5 -18.5h-372v-471h559q27 0 45 -18.5t18 -45.5t-18.5 -45t-44.5 -18h-623q-27 0 -45 18.5t-18 44.5z" />
<glyph unicode="&#xc7;" horiz-adv-x="1310" d="M80 651q0 135 51 254t139 208t207 140.5t255 51.5t256 -53.5t210 -145.5q27 -27 27 -56.5t-18.5 -44t-46.5 -14t-74 42t-144 93t-209 51.5t-207 -41t-166 -113q-153 -156 -153 -373q0 -219 153 -371q70 -71 166.5 -112t208 -41t210.5 44t171 122q20 24 52 24q59 0 59 -59 q0 -33 -19 -51q-90 -98 -213 -152.5t-261 -54.5t-257 51t-207 139.5t-139 207t-51 253.5zM517 -267q0 23 17 40.5t44 17.5t37 -18.5t18.5 -42t19.5 -42t40 -18.5t47 18.5t18 48t-18.5 40t-42 18.5t-42 20.5t-18.5 46.5v191h115v-150q53 -18 87 -64t34 -113t-52.5 -119 t-125.5 -52q-74 0 -126 52.5t-52 125.5z" />
<glyph unicode="&#xc8;" horiz-adv-x="903" d="M76 63v1182q0 27 18.5 45.5t44.5 18.5h623q27 0 45 -18.5t18 -45.5t-18.5 -45t-44.5 -18h-559v-457h372q27 0 45.5 -18.5t18.5 -44.5q0 -27 -18.5 -45.5t-45.5 -18.5h-372v-471h559q27 0 45 -18.5t18 -45.5t-18.5 -45t-44.5 -18h-623q-27 0 -45 18.5t-18 44.5zM236 1724 q-18 36 5 64t45 28q45 0 60 -30l170 -293q6 -16 6 -35t-17.5 -39.5t-51 -20.5t-47.5 31z" />
<glyph unicode="&#xc9;" horiz-adv-x="903" d="M76 63v1182q0 27 18.5 45.5t44.5 18.5h623q27 0 45 -18.5t18 -45.5t-18.5 -45t-44.5 -18h-559v-457h372q27 0 45.5 -18.5t18.5 -44.5q0 -27 -18.5 -45.5t-45.5 -18.5h-372v-471h559q27 0 45 -18.5t18 -45.5t-18.5 -45t-44.5 -18h-623q-27 0 -45 18.5t-18 44.5z M426 1457.5q0 18.5 7 31.5l170 295q16 31 49 30.5t50 -21t17 -40.5t-6 -33l-170 -293q-16 -33 -49 -33t-50.5 22.5t-17.5 41z" />
<glyph unicode="&#xca;" horiz-adv-x="903" d="M76 63v1182q0 27 18.5 45.5t44.5 18.5h623q27 0 45 -18.5t18 -45.5t-18.5 -45t-44.5 -18h-559v-457h372q27 0 45.5 -18.5t18.5 -44.5q0 -27 -18.5 -45.5t-45.5 -18.5h-372v-471h559q27 0 45 -18.5t18 -45.5t-18.5 -45t-44.5 -18h-623q-27 0 -45 18.5t-18 44.5zM108 1456 q0 27 19 45l284 273q18 18 45 18t45 -18l287 -268q18 -18 19 -45q0 -27 -18.5 -45.5t-45.5 -18.5t-45 18l-242 228l-239 -232q-18 -18 -45 -18t-45.5 18.5t-18.5 44.5z" />
<glyph unicode="&#xcb;" horiz-adv-x="903" d="M76 63v1182q0 27 18.5 45.5t44.5 18.5h623q27 0 45 -18.5t18 -45.5t-18.5 -45t-44.5 -18h-559v-457h372q27 0 45.5 -18.5t18.5 -44.5q0 -27 -18.5 -45.5t-45.5 -18.5h-372v-471h559q27 0 45 -18.5t18 -45.5t-18.5 -45t-44.5 -18h-623q-27 0 -45 18.5t-18 44.5zM211 1483 q0 35 24.5 59.5t59.5 24.5t59.5 -25t24.5 -59q0 -35 -24.5 -59.5t-59.5 -24.5t-59.5 24.5t-24.5 59.5zM535 1483q0 35 24.5 59.5t59.5 24.5t59.5 -25t24.5 -59q0 -35 -24.5 -59.5t-59.5 -24.5t-59.5 24.5t-24.5 59.5z" />
<glyph unicode="&#xcc;" horiz-adv-x="329" d="M-63 1726q-18 36 5 64t45 28q45 0 60 -30l170 -293q6 -16 6 -35t-17.5 -39.5t-51 -20.5t-47.5 31zM102 63v1182q0 27 18.5 45.5t45.5 18.5t45 -18.5t18 -45.5v-1182q0 -27 -18.5 -45t-44.5 -18q-27 0 -45.5 18.5t-18.5 44.5z" />
<glyph unicode="&#xcd;" horiz-adv-x="329" d="M100 63v1182q0 27 18.5 45.5t45.5 18.5t45 -18.5t18 -45.5v-1182q0 -27 -18.5 -45t-44.5 -18q-27 0 -45.5 18.5t-18.5 44.5zM108 1461.5q0 18.5 7 31.5l170 295q16 31 49 30.5t50 -21t17 -40.5t-6 -33l-170 -293q-16 -33 -49 -33t-50.5 22.5t-17.5 41z" />
<glyph unicode="&#xce;" horiz-adv-x="348" d="M-162 1448q0 27 19 45l284 273q18 18 45 18t45 -18l287 -268q18 -18 19 -45q0 -27 -18.5 -45.5t-45.5 -18.5t-45 18l-242 228l-239 -232q-18 -18 -45 -18t-45.5 18.5t-18.5 44.5zM108 63v1182q0 27 18.5 45.5t45.5 18.5t45 -18.5t18 -45.5v-1182q0 -27 -18.5 -45 t-44.5 -18q-27 0 -45.5 18.5t-18.5 44.5z" />
<glyph unicode="&#xcf;" horiz-adv-x="307" d="M-92 1500q0 35 24.5 59.5t59.5 24.5t59.5 -25t24.5 -59q0 -35 -24.5 -59.5t-59.5 -24.5t-59.5 24.5t-24.5 59.5zM88 63v1182q0 27 18.5 45.5t45.5 18.5t45 -18.5t18 -45.5v-1182q0 -27 -18.5 -45t-44.5 -18q-27 0 -45.5 18.5t-18.5 44.5zM232 1500q0 35 24.5 59.5 t59.5 24.5t59.5 -25t24.5 -59q0 -35 -24.5 -59.5t-59.5 -24.5t-59.5 24.5t-24.5 59.5z" />
<glyph unicode="&#xd0;" horiz-adv-x="1382" d="M78 614q0 27 18.5 45.5t44.5 18.5h95v567q0 27 18 45.5t45 18.5h352q135 0 254 -52.5t208 -141.5t140.5 -209t51.5 -255t-51.5 -253.5t-140.5 -207t-208 -139.5t-254 -51h-352q-27 0 -45 18.5t-18 44.5v488h-95q-27 0 -45 18.5t-18 44.5zM362 127h289q217 0 373 153 q154 150 154 371q0 218 -154 374q-155 157 -373 157h-289v-504h109q27 0 45.5 -18.5t18.5 -45.5t-18.5 -45t-45.5 -18h-109v-424z" />
<glyph unicode="&#xd1;" d="M98 63v1182q0 27 18.5 45.5t43.5 18.5t36 -9.5t23 -25.5l705 -998v969q0 27 18.5 45.5t44.5 18.5q27 0 45.5 -18.5t18.5 -45.5v-1182q0 -27 -18.5 -45t-43.5 -18q-36 0 -63 43l-701 991v-971q0 -27 -18.5 -45t-44.5 -18q-27 0 -45.5 18.5t-18.5 44.5zM166 1461.5 q0 23.5 26.5 58t65.5 67.5q95 80 170 80q62 0 167 -79q40 -30 75 -54.5t68.5 -24.5t60.5 22.5t46 50.5t37.5 50.5t45.5 22.5t41 -19.5t14 -48.5t-25.5 -65.5t-63.5 -65.5q-85 -65 -161 -65q-43 0 -81.5 24.5t-76.5 53t-74 53t-67 24.5t-53 -12t-42.5 -30.5t-37 -39.5 t-30.5 -37q-14 -23 -41.5 -22.5t-45.5 17t-18 40z" />
<glyph unicode="&#xd2;" horiz-adv-x="1464" d="M80 651q0 135 51 254t139 208t207 140.5t254 51.5t254 -51.5t208 -140.5t140 -208t51 -254t-51 -253.5t-140 -207t-208 -139.5t-254 -51t-254 51t-207 139.5t-139 207t-51 253.5zM207 651q0 -219 153 -371q70 -71 166.5 -112t204.5 -41q217 0 373 153q153 149 153 371 q0 220 -153 373q-154 154 -373 154q-221 0 -371 -154q-153 -156 -153 -373zM500 1724q-18 36 5 64t45 28q45 0 60 -30l170 -293q6 -16 6 -35t-17.5 -39.5t-51 -20.5t-47.5 31z" />
<glyph unicode="&#xd3;" horiz-adv-x="1464" d="M80 651q0 135 51 254t139 208t207 140.5t254 51.5t254 -51.5t208 -140.5t140 -208t51 -254t-51 -253.5t-140 -207t-208 -139.5t-254 -51t-254 51t-207 139.5t-139 207t-51 253.5zM207 651q0 -219 153 -371q70 -71 166.5 -112t204.5 -41q217 0 373 153q153 149 153 371 q0 220 -153 373q-154 154 -373 154q-221 0 -371 -154q-153 -156 -153 -373zM673 1459.5q0 18.5 7 31.5l170 295q16 31 49 30.5t50 -21t17 -40.5t-6 -33l-170 -293q-16 -33 -49 -33t-50.5 22.5t-17.5 41z" />
<glyph unicode="&#xd4;" horiz-adv-x="1464" d="M80 651q0 135 51 254t139 208t207 140.5t254 51.5t254 -51.5t208 -140.5t140 -208t51 -254t-51 -253.5t-140 -207t-208 -139.5t-254 -51t-254 51t-207 139.5t-139 207t-51 253.5zM207 651q0 -219 153 -371q70 -71 166.5 -112t204.5 -41q217 0 373 153q153 149 153 371 q0 220 -153 373q-154 154 -373 154q-221 0 -371 -154q-153 -156 -153 -373zM385 1435q0 27 19 45l284 273q18 18 45 18t45 -18l287 -268q18 -18 19 -45q0 -27 -18.5 -45.5t-45.5 -18.5t-45 18l-242 228l-239 -232q-18 -18 -45 -18t-45.5 18.5t-18.5 44.5z" />
<glyph unicode="&#xd5;" horiz-adv-x="1464" d="M80 651q0 135 51 254t139 208t207 140.5t254 51.5t254 -51.5t208 -140.5t140 -208t51 -254t-51 -253.5t-140 -207t-208 -139.5t-254 -51t-254 51t-207 139.5t-139 207t-51 253.5zM207 651q0 -219 153 -371q70 -71 166.5 -112t204.5 -41q217 0 373 153q153 149 153 371 q0 220 -153 373q-154 154 -373 154q-221 0 -371 -154q-153 -156 -153 -373zM315 1457.5q0 23.5 26.5 58t65.5 67.5q95 80 170 80q62 0 167 -79q40 -30 75 -54.5t68.5 -24.5t60.5 22.5t46 50.5t37.5 50.5t45.5 22.5t41 -19.5t14 -48.5t-25.5 -65.5t-63.5 -65.5 q-85 -65 -161 -65q-43 0 -81.5 24.5t-76.5 53t-74 53t-67 24.5t-53 -12t-42.5 -30.5t-37 -39.5t-30.5 -37q-14 -23 -41.5 -22.5t-45.5 17t-18 40z" />
<glyph unicode="&#xd6;" horiz-adv-x="1464" d="M80 651q0 135 51 254t139 208t207 140.5t254 51.5t254 -51.5t208 -140.5t140 -208t51 -254t-51 -253.5t-140 -207t-208 -139.5t-254 -51t-254 51t-207 139.5t-139 207t-51 253.5zM207 651q0 -219 153 -371q70 -71 166.5 -112t204.5 -41q217 0 373 153q153 149 153 371 q0 220 -153 373q-154 154 -373 154q-221 0 -371 -154q-153 -156 -153 -373zM489 1479q0 35 24.5 59.5t59.5 24.5t59.5 -25t24.5 -59q0 -35 -24.5 -59.5t-59.5 -24.5t-59.5 24.5t-24.5 59.5zM813 1479q0 35 24.5 59.5t59.5 24.5t59.5 -25t24.5 -59q0 -35 -24.5 -59.5 t-59.5 -24.5t-59.5 24.5t-24.5 59.5z" />
<glyph unicode="&#xd7;" horiz-adv-x="1079" d="M94 106q0 25 19 48l338 342l-334 335q-20 25 -20.5 51t20 42t46.5 16t42 -16l336 -338l333 336q16 16 42.5 16t45.5 -16.5t19 -44t-18 -48.5l-334 -333l338 -338q18 -23 18 -47q0 -25 -19.5 -43.5t-45 -18.5t-43.5 21l-336 336l-338 -340q-18 -20 -44 -20.5t-45.5 18 t-19.5 42.5z" />
<glyph unicode="&#xd8;" horiz-adv-x="1464" d="M80 651q0 135 51 254t139 208t207 140.5t254 51.5t254 -51.5t208 -140.5t140 -208t51 -254t-51 -253.5t-140 -207t-208 -139.5t-254 -51t-254 51t-207 139.5t-139 207t-51 253.5zM207 651q0 -219 153 -371q70 -71 166.5 -112t204.5 -41q217 0 373 153q153 149 153 371 q0 220 -153 373q-154 154 -373 154q-221 0 -371 -154q-153 -156 -153 -373zM467 31q0 15 4 28l394 1229q13 43 51.5 43t54.5 -20.5t16 -38t-2 -23.5l-393 -1229q-6 -20 -24.5 -32.5t-42 -12.5t-41 20.5t-17.5 35.5z" />
<glyph unicode="&#xd9;" horiz-adv-x="1095" d="M92 455v788q0 23 18.5 44.5t47.5 21.5t45 -20.5t16 -47.5v-786q0 -136 95 -231q97 -97 233 -97q132 0 231 97t99 231v788q0 23 18 44.5t47 21.5t45.5 -22.5t16.5 -45.5v-786q0 -186 -136 -321q-133 -134 -321 -134t-321.5 133.5t-133.5 321.5zM332 1722q-18 36 5 64 t45 28q45 0 60 -30l170 -293q6 -16 6 -35t-17.5 -39.5t-51 -20.5t-47.5 31z" />
<glyph unicode="&#xda;" horiz-adv-x="1095" d="M92 455v788q0 23 18.5 44.5t47.5 21.5t45 -20.5t16 -47.5v-786q0 -136 95 -231q97 -97 233 -97q132 0 231 97t99 231v788q0 23 18 44.5t47 21.5t45.5 -22.5t16.5 -45.5v-786q0 -186 -136 -321q-133 -134 -321 -134t-321.5 133.5t-133.5 321.5zM442 1457.5q0 18.5 7 31.5 l170 295q16 31 49 30.5t50 -21t17 -40.5t-6 -33l-170 -293q-16 -33 -49 -33t-50.5 22.5t-17.5 41z" />
<glyph unicode="&#xdb;" horiz-adv-x="1095" d="M92 455v788q0 23 18.5 44.5t47.5 21.5t45 -20.5t16 -47.5v-786q0 -136 95 -231q97 -97 233 -97q132 0 231 97t99 231v788q0 23 18 44.5t47 21.5t45.5 -22.5t16.5 -45.5v-786q0 -186 -136 -321q-133 -134 -321 -134t-321.5 133.5t-133.5 321.5zM215 1456q0 27 19 45 l284 273q18 18 45 18t45 -18l287 -268q18 -18 19 -45q0 -27 -18.5 -45.5t-45.5 -18.5t-45 18l-242 228l-239 -232q-18 -18 -45 -18t-45.5 18.5t-18.5 44.5z" />
<glyph unicode="&#xdc;" horiz-adv-x="1095" d="M92 455v788q0 23 18.5 44.5t47.5 21.5t45 -20.5t16 -47.5v-786q0 -136 95 -231q97 -97 233 -97q132 0 231 97t99 231v788q0 23 18 44.5t47 21.5t45.5 -22.5t16.5 -45.5v-786q0 -186 -136 -321q-133 -134 -321 -134t-321.5 133.5t-133.5 321.5zM301 1498q0 35 24.5 59.5 t59.5 24.5t59.5 -25t24.5 -59q0 -35 -24.5 -59.5t-59.5 -24.5t-59.5 24.5t-24.5 59.5zM625 1498q0 35 24.5 59.5t59.5 24.5t59.5 -25t24.5 -59q0 -35 -24.5 -59.5t-59.5 -24.5t-59.5 24.5t-24.5 59.5z" />
<glyph unicode="&#xdd;" horiz-adv-x="1060" d="M70 1245q0 23 17 42.5t49 19.5t50 -27l344 -514l344 514q18 27 49.5 27t49.5 -19.5t18 -41t-10 -38.5l-387 -575v-570q0 -27 -18.5 -45t-45.5 -18t-45 18.5t-18 44.5v570l-385 575q-12 14 -12 37zM456 1457.5q0 18.5 7 31.5l170 295q16 31 49 30.5t50 -21t17 -40.5 t-6 -33l-170 -293q-16 -33 -49 -33t-50.5 22.5t-17.5 41z" />
<glyph unicode="&#xde;" horiz-adv-x="1058" d="M70 -307v1548q0 23 18 44.5t45 21.5t46.5 -19.5t19.5 -46.5v-440q128 106 276 138q41 9 70 9q196 0 339 -142q136 -137 136 -333q0 -195 -142 -335q-140 -138 -331 -138q-102 0 -193.5 43t-156.5 115v-465q0 -27 -18.5 -45.5t-45.5 -18.5t-45 18.5t-18 45.5zM199 473 q0 -142 104 -246q102 -102 244 -102q137 0 243 102q105 102 105 246q0 143 -105 247q-105 103 -243 103q-140 0 -244 -108t-104 -242z" />
<glyph unicode="&#xdf;" horiz-adv-x="890" d="M88 49v944q0 158 110.5 268.5t266.5 110.5q159 0 268 -110q111 -113 111 -269q0 -98 -46 -181t-124 -134q76 -53 122 -135t46 -170.5t-30 -157t-81 -119.5q-110 -110 -266 -110q-27 0 -45.5 18.5t-18.5 44.5q0 27 18.5 45.5t45.5 18.5q119 10 186.5 81.5t67.5 167.5 q0 104 -71 174t-183 78q-27 0 -45.5 18.5t-18.5 45.5t18.5 45t58.5 18t86 19.5t81 54.5q74 74 74 178q0 106 -74 179q-75 73 -180 73q-103 0 -178 -73q-74 -73 -74 -179v-944q0 -27 -18.5 -45t-44.5 -18q-27 0 -44.5 18.5t-17.5 44.5z" />
<glyph unicode="&#xe0;" horiz-adv-x="1159" d="M84 494q0 207 142 352q144 145 356 145q196 0 343.5 -147.5t147.5 -349.5v-433q0 -27 -18.5 -45t-44.5 -18q-27 0 -45.5 18.5t-18.5 44.5v125q-68 -76 -163 -130t-201 -54t-195.5 37t-156.5 103q-146 141 -146 352zM211 494q0 -152 107.5 -259.5t259.5 -107.5 q148 0 254 105q108 105 112 260q2 78 -26.5 145.5t-79.5 117.5q-108 107 -260 107q-151 0 -260 -107q-107 -106 -107 -261zM336 1423q-18 36 5 64t45 28q45 0 60 -30l170 -293q6 -16 6 -35t-17.5 -39.5t-51 -20.5t-47.5 31z" />
<glyph unicode="&#xe1;" horiz-adv-x="1159" d="M84 494q0 207 142 352q144 145 356 145q196 0 343.5 -147.5t147.5 -349.5v-433q0 -27 -18.5 -45t-44.5 -18q-27 0 -45.5 18.5t-18.5 44.5v125q-68 -76 -163 -130t-201 -54t-195.5 37t-156.5 103q-146 141 -146 352zM211 494q0 -152 107.5 -259.5t259.5 -107.5 q148 0 254 105q108 105 112 260q2 78 -26.5 145.5t-79.5 117.5q-108 107 -260 107q-151 0 -260 -107q-107 -106 -107 -261zM524 1160.5q0 18.5 7 31.5l170 295q16 31 49 30.5t50 -21t17 -40.5t-6 -33l-170 -293q-16 -33 -49 -33t-50.5 22.5t-17.5 41z" />
<glyph unicode="&#xe2;" horiz-adv-x="1159" d="M84 498q0 207 142 352q144 145 356 145q196 0 343.5 -147.5t147.5 -349.5v-433q0 -27 -18.5 -45t-44.5 -18q-27 0 -45.5 18.5t-18.5 44.5v125q-68 -76 -163 -130t-201 -54t-195.5 37t-156.5 103q-146 141 -146 352zM211 498q0 -152 107.5 -259.5t259.5 -107.5 q148 0 254 105q108 105 112 260q2 78 -26.5 145.5t-79.5 117.5q-108 107 -260 107q-151 0 -260 -107q-107 -106 -107 -261zM235 1161q0 27 19 45l284 273q18 18 45 18t45 -18l287 -268q18 -18 19 -45q0 -27 -18.5 -45.5t-45.5 -18.5t-45 18l-242 228l-239 -232 q-18 -18 -45 -18t-45.5 18.5t-18.5 44.5z" />
<glyph unicode="&#xe3;" horiz-adv-x="1159" d="M84 494q0 207 142 352q144 145 356 145q196 0 343.5 -147.5t147.5 -349.5v-433q0 -27 -18.5 -45t-44.5 -18q-27 0 -45.5 18.5t-18.5 44.5v125q-68 -76 -163 -130t-201 -54t-195.5 37t-156.5 103q-146 141 -146 352zM182 1142.5q0 23.5 26.5 58t65.5 67.5q95 80 170 80 q62 0 167 -79q40 -30 75 -54.5t68.5 -24.5t60.5 22.5t46 50.5t37.5 50.5t45.5 22.5t41 -19.5t14 -48.5t-25.5 -65.5t-63.5 -65.5q-85 -65 -161 -65q-43 0 -81.5 24.5t-76.5 53t-74 53t-67 24.5t-53 -12t-42.5 -30.5t-37 -39.5t-30.5 -37q-14 -23 -41.5 -22.5t-45.5 17 t-18 40zM211 494q0 -152 107.5 -259.5t259.5 -107.5q148 0 254 105q108 105 112 260q2 78 -26.5 145.5t-79.5 117.5q-108 107 -260 107q-151 0 -260 -107q-107 -106 -107 -261z" />
<glyph unicode="&#xe4;" horiz-adv-x="1159" d="M84 494q0 207 142 352q144 145 356 145q196 0 343.5 -147.5t147.5 -349.5v-433q0 -27 -18.5 -45t-44.5 -18q-27 0 -45.5 18.5t-18.5 44.5v125q-68 -76 -163 -130t-201 -54t-195.5 37t-156.5 103q-146 141 -146 352zM211 494q0 -152 107.5 -259.5t259.5 -107.5 q148 0 254 105q108 105 112 260q2 78 -26.5 145.5t-79.5 117.5q-108 107 -260 107q-151 0 -260 -107q-107 -106 -107 -261zM338 1223q0 35 24.5 59.5t59.5 24.5t59.5 -25t24.5 -59q0 -35 -24.5 -59.5t-59.5 -24.5t-59.5 24.5t-24.5 59.5zM662 1223q0 35 24.5 59.5t59.5 24.5 t59.5 -25t24.5 -59q0 -35 -24.5 -59.5t-59.5 -24.5t-59.5 24.5t-24.5 59.5z" />
<glyph unicode="&#xe5;" horiz-adv-x="1159" d="M84 494q0 207 142 352q144 145 356 145q196 0 343.5 -147.5t147.5 -349.5v-433q0 -27 -18.5 -45t-44.5 -18q-27 0 -45.5 18.5t-18.5 44.5v125q-68 -76 -163 -130t-201 -54t-195.5 37t-156.5 103q-146 141 -146 352zM211 494q0 -152 107.5 -259.5t259.5 -107.5 q148 0 254 105q108 105 112 260q2 78 -26.5 145.5t-79.5 117.5q-108 107 -260 107q-151 0 -260 -107q-107 -106 -107 -261zM387 1288q0 82 56 139.5t138 57.5t139.5 -57.5t57.5 -139.5t-57.5 -138t-139.5 -56t-138 56t-56 138zM510 1288q0 -33 19.5 -52t51.5 -19 q33 0 53.5 19t20.5 52t-20.5 53.5t-53.5 20.5t-52 -20.5t-19 -53.5z" />
<glyph unicode="&#xe6;" horiz-adv-x="2023" d="M84 494q0 207 142 352q144 145 356 145q196 0 343.5 -147.5t147.5 -349.5v-433q0 -27 -18.5 -45t-44.5 -18q-27 0 -45.5 18.5t-18.5 44.5v125q-68 -76 -163 -130t-201 -54t-195.5 37t-156.5 103q-146 141 -146 352zM211 494q0 -152 107.5 -259.5t259.5 -107.5 q148 0 254 105q108 105 112 260q2 78 -26.5 145.5t-79.5 117.5q-108 107 -260 107q-151 0 -260 -107q-107 -106 -107 -261zM948 494q0 204 142.5 346.5t355.5 150.5q196 0 342 -145q149 -150 149 -348q0 -31 -20.5 -47.5t-42.5 -16.5h-795q20 -130 124 -219q103 -88 238 -88 q150 0 258 104q18 18 46 19q27 0 45 -18.5t18 -45.5t-18 -45q-68 -76 -153 -107.5t-191.5 -31.5t-195.5 37t-156 103q-146 141 -146 352zM1081 561h723q-25 130 -126 214q-104 87 -237 87q-132 0 -236 -87q-99 -83 -124 -214z" />
<glyph unicode="&#xe7;" horiz-adv-x="1028" d="M84 492q0 204 142 346q67 67 158.5 107t185.5 42t159.5 -22.5t112.5 -56t72.5 -63.5t25.5 -51.5t-18.5 -36t-43 -16.5t-59 32t-100.5 59.5t-141 27.5q-152 0 -259.5 -107.5t-107.5 -260.5q0 -152 107.5 -259.5t259.5 -107.5q148 0 258 104q18 18 44 18.5t45 -17t19 -39 t-23.5 -53.5t-70.5 -62q-116 -76 -272 -76q-205 0 -348 140q-146 141 -146 352zM377 -217q0 23 17 40.5t44 17.5t37 -18.5t18.5 -42t19.5 -42t40 -18.5t47 18.5t18 48t-18.5 40t-42 18.5t-42 20.5t-18.5 46.5v191h115v-150q53 -18 87 -64t34 -113t-52.5 -119t-125.5 -52 q-74 0 -126 52.5t-52 125.5z" />
<glyph unicode="&#xe8;" d="M80 494q0 204 142.5 346.5t355.5 150.5q196 0 342 -145q149 -150 149 -348q0 -31 -20.5 -47.5t-42.5 -16.5h-795q20 -130 124 -219q103 -88 238 -88q150 0 258 104q18 18 46 19q27 0 45 -18.5t18 -45.5t-18 -45q-68 -76 -153 -107.5t-191.5 -31.5t-195.5 37t-156 103 q-146 141 -146 352zM213 561h723q-25 130 -126 214q-104 87 -237 87q-132 0 -236 -87q-99 -83 -124 -214zM340 1423q-18 36 5 64t45 28q45 0 60 -30l170 -293q6 -16 6 -35t-17.5 -39.5t-51 -20.5t-47.5 31z" />
<glyph unicode="&#xe9;" d="M80 494q0 204 142.5 346.5t355.5 150.5q196 0 342 -145q149 -150 149 -348q0 -31 -20.5 -47.5t-42.5 -16.5h-795q20 -130 124 -219q103 -88 238 -88q150 0 258 104q18 18 46 19q27 0 45 -18.5t18 -45.5t-18 -45q-68 -76 -153 -107.5t-191.5 -31.5t-195.5 37t-156 103 q-146 141 -146 352zM213 561h723q-25 130 -126 214q-104 87 -237 87q-132 0 -236 -87q-99 -83 -124 -214zM520 1160.5q0 18.5 7 31.5l170 295q16 31 49 30.5t50 -21t17 -40.5t-6 -33l-170 -293q-16 -33 -49 -33t-50.5 22.5t-17.5 41z" />
<glyph unicode="&#xea;" d="M80 494q0 204 142.5 346.5t355.5 150.5q196 0 342 -145q149 -150 149 -348q0 -31 -20.5 -47.5t-42.5 -16.5h-795q20 -130 124 -219q103 -88 238 -88q150 0 258 104q18 18 46 19q27 0 45 -18.5t18 -45.5t-18 -45q-68 -76 -153 -107.5t-191.5 -31.5t-195.5 37t-156 103 q-146 141 -146 352zM207 1161q0 27 19 45l284 273q18 18 45 18t45 -18l287 -268q18 -18 19 -45q0 -27 -18.5 -45.5t-45.5 -18.5t-45 18l-242 228l-239 -232q-18 -18 -45 -18t-45.5 18.5t-18.5 44.5zM213 561h723q-25 130 -126 214q-104 87 -237 87q-132 0 -236 -87 q-99 -83 -124 -214z" />
<glyph unicode="&#xeb;" d="M80 494q0 204 142.5 346.5t355.5 150.5q196 0 342 -145q149 -150 149 -348q0 -31 -20.5 -47.5t-42.5 -16.5h-795q20 -130 124 -219q103 -88 238 -88q150 0 258 104q18 18 46 19q27 0 45 -18.5t18 -45.5t-18 -45q-68 -76 -153 -107.5t-191.5 -31.5t-195.5 37t-156 103 q-146 141 -146 352zM213 561h723q-25 130 -126 214q-104 87 -237 87q-132 0 -236 -87q-99 -83 -124 -214zM311 1209q0 35 24.5 59.5t59.5 24.5t59.5 -25t24.5 -59q0 -35 -24.5 -59.5t-59.5 -24.5t-59.5 24.5t-24.5 59.5zM635 1209q0 35 24.5 59.5t59.5 24.5t59.5 -25 t24.5 -59q0 -35 -24.5 -59.5t-59.5 -24.5t-59.5 24.5t-24.5 59.5z" />
<glyph unicode="&#xec;" horiz-adv-x="288" d="M-73 1425q-18 36 5 64t45 28q45 0 60 -30l170 -293q6 -16 6 -35t-17.5 -39.5t-51 -20.5t-47.5 31zM94 63v855q0 27 18.5 45t44.5 18q27 0 45.5 -18.5t18.5 -44.5v-855q0 -27 -18.5 -45t-45.5 -18t-45 18.5t-18 44.5z" />
<glyph unicode="&#xed;" horiz-adv-x="288" d="M74 63v855q0 27 18.5 45t44.5 18q27 0 45.5 -18.5t18.5 -44.5v-855q0 -27 -18.5 -45t-45.5 -18t-45 18.5t-18 44.5zM77 1160.5q0 18.5 7 31.5l170 295q16 31 49 30.5t50 -21t17 -40.5t-6 -33l-170 -293q-16 -33 -49 -33t-50.5 22.5t-17.5 41z" />
<glyph unicode="&#xee;" horiz-adv-x="313" d="M-191 1142q0 27 19 45l284 273q18 18 45 18t45 -18l287 -268q18 -18 19 -45q0 -27 -18.5 -45.5t-45.5 -18.5t-45 18l-242 228l-239 -232q-18 -18 -45 -18t-45.5 18.5t-18.5 44.5zM92 63v855q0 27 18.5 45t44.5 18q27 0 45.5 -18.5t18.5 -44.5v-855q0 -27 -18.5 -45 t-45.5 -18t-45 18.5t-18 44.5z" />
<glyph unicode="&#xef;" horiz-adv-x="321" d="M-84 1217q0 35 24.5 59.5t59.5 24.5t59.5 -25t24.5 -59q0 -35 -24.5 -59.5t-59.5 -24.5t-59.5 24.5t-24.5 59.5zM97 63v855q0 27 18.5 45t44.5 18q27 0 45.5 -18.5t18.5 -44.5v-855q0 -27 -18.5 -45t-45.5 -18t-45 18.5t-18 44.5zM240 1217q0 35 24.5 59.5t59.5 24.5 t59.5 -25t24.5 -59q0 -35 -24.5 -59.5t-59.5 -24.5t-59.5 24.5t-24.5 59.5z" />
<glyph unicode="&#xf0;" horiz-adv-x="911" d="M74 387q0 160 111.5 271.5t264.5 111.5t261 -98v321q0 57 -30 103q-65 98 -179 98q-27 0 -45.5 18.5t-18.5 44.5q0 27 18.5 45.5t45.5 18.5q166 0 260 -120q74 -95 74 -208l2 -606q0 -157 -112 -269t-271 -112q-156 0 -269 112q-112 110 -112 269zM201 387 q0 -105 73 -180q73 -74 181 -74q106 0 180 74q76 76 76 180t-76 180t-180 76q-106 0 -181 -76q-73 -75 -73 -180z" />
<glyph unicode="&#xf1;" horiz-adv-x="929" d="M49 1158.5q0 23.5 26.5 58t65.5 67.5q95 80 170 80q62 0 167 -79q40 -30 75 -54.5t68.5 -24.5t60.5 22.5t46 50.5t37.5 50.5t45.5 22.5t41 -19.5t14 -48.5t-25.5 -65.5t-63.5 -65.5q-85 -65 -161 -65q-43 0 -81.5 24.5t-76.5 53t-74 53t-67 24.5t-53 -12t-42.5 -30.5 t-37 -39.5t-30.5 -37q-14 -23 -41.5 -22.5t-45.5 17t-18 40zM94 63v869q0 27 18.5 45t45.5 18t45 -18.5t18 -44.5v-27q103 90 240 90q154 0 261 -107t107 -261v-564q0 -27 -18 -45t-45 -18t-45.5 18.5t-18.5 44.5v564q0 100 -71 169q-71 70 -170 70q-95 0 -168 -68 q-68 -62 -72 -161v-574q0 -27 -18.5 -45t-44.5 -18q-27 0 -45.5 18.5t-18.5 44.5z" />
<glyph unicode="&#xf2;" d="M80 494q0 204 142 346q145 145 352 149q102 2 191 -38t157 -107q147 -148 147 -350q0 -200 -145 -346q-143 -146 -351 -146q-204 0 -347 140q-146 141 -146 352zM207 494q0 -152 107.5 -259.5t258.5 -107.5q154 0 261.5 107.5t107.5 259.5q0 155 -108 261 q-108 107 -261 107q-150 0 -259 -107q-107 -106 -107 -261zM324 1415q-18 36 5 64t45 28q45 0 60 -30l170 -293q6 -16 6 -35t-17.5 -39.5t-51 -20.5t-47.5 31z" />
<glyph unicode="&#xf3;" d="M80 494q0 204 142 346q145 145 352 149q102 2 191 -38t157 -107q147 -148 147 -350q0 -200 -145 -346q-143 -146 -351 -146q-204 0 -347 140q-146 141 -146 352zM207 494q0 -152 107.5 -259.5t258.5 -107.5q154 0 261.5 107.5t107.5 259.5q0 155 -108 261 q-108 107 -261 107q-150 0 -259 -107q-107 -106 -107 -261zM512 1158.5q0 18.5 7 31.5l170 295q16 31 49 30.5t50 -21t17 -40.5t-6 -33l-170 -293q-16 -33 -49 -33t-50.5 22.5t-17.5 41z" />
<glyph unicode="&#xf4;" d="M80 494q0 204 142 346q145 145 352 149q102 2 191 -38t157 -107q147 -148 147 -350q0 -200 -145 -346q-143 -146 -351 -146q-204 0 -347 140q-146 141 -146 352zM207 494q0 -152 107.5 -259.5t258.5 -107.5q154 0 261.5 107.5t107.5 259.5q0 155 -108 261 q-108 107 -261 107q-150 0 -259 -107q-107 -106 -107 -261zM227 1142q0 27 19 45l284 273q18 18 45 18t45 -18l287 -268q18 -18 19 -45q0 -27 -18.5 -45.5t-45.5 -18.5t-45 18l-242 228l-239 -232q-18 -18 -45 -18t-45.5 18.5t-18.5 44.5z" />
<glyph unicode="&#xf5;" d="M80 494q0 204 142 346q145 145 352 149q102 2 191 -38t157 -107q147 -148 147 -350q0 -200 -145 -346q-143 -146 -351 -146q-204 0 -347 140q-146 141 -146 352zM166 1156.5q0 23.5 26.5 58t65.5 67.5q95 80 170 80q62 0 167 -79q40 -30 75 -54.5t68.5 -24.5t60.5 22.5 t46 50.5t37.5 50.5t45.5 22.5t41 -19.5t14 -48.5t-25.5 -65.5t-63.5 -65.5q-85 -65 -161 -65q-43 0 -81.5 24.5t-76.5 53t-74 53t-67 24.5t-53 -12t-42.5 -30.5t-37 -39.5t-30.5 -37q-14 -23 -41.5 -22.5t-45.5 17t-18 40zM207 494q0 -152 107.5 -259.5t258.5 -107.5 q154 0 261.5 107.5t107.5 259.5q0 155 -108 261q-108 107 -261 107q-150 0 -259 -107q-107 -106 -107 -261z" />
<glyph unicode="&#xf6;" d="M80 494q0 204 142 346q145 145 352 149q102 2 191 -38t157 -107q147 -148 147 -350q0 -200 -145 -346q-143 -146 -351 -146q-204 0 -347 140q-146 141 -146 352zM207 494q0 -152 107.5 -259.5t258.5 -107.5q154 0 261.5 107.5t107.5 259.5q0 155 -108 261 q-108 107 -261 107q-150 0 -259 -107q-107 -106 -107 -261zM315 1176q0 35 24.5 59.5t59.5 24.5t59.5 -25t24.5 -59q0 -35 -24.5 -59.5t-59.5 -24.5t-59.5 24.5t-24.5 59.5zM639 1176q0 35 24.5 59.5t59.5 24.5t59.5 -25t24.5 -59q0 -35 -24.5 -59.5t-59.5 -24.5t-59.5 24.5 t-24.5 59.5z" />
<glyph unicode="&#xf7;" horiz-adv-x="892" d="M47 637q0 27 18.5 45t45.5 18h669q27 0 45.5 -18t18.5 -45t-18.5 -45.5t-45.5 -18.5h-669q-27 0 -45.5 18.5t-18.5 45.5zM360 283q0 29 21.5 51t52.5 22t51.5 -22.5t20.5 -50.5q0 -29 -20.5 -50.5t-51.5 -21.5t-52.5 21.5t-21.5 50.5zM360 993q0 29 21.5 51.5t52.5 22.5 t51.5 -22.5t20.5 -51.5t-20.5 -50t-51.5 -21t-52.5 21.5t-21.5 49.5z" />
<glyph unicode="&#xf8;" d="M80 494q0 204 142 346q145 145 352 149q102 2 191 -38t157 -107q147 -148 147 -350q0 -200 -145 -346q-143 -146 -351 -146q-204 0 -347 140q-146 141 -146 352zM207 494q0 -152 107.5 -259.5t258.5 -107.5q154 0 261.5 107.5t107.5 259.5q0 155 -108 261 q-108 107 -261 107q-150 0 -259 -107q-107 -106 -107 -261zM315 -108q0 15 4 28l394 1229q13 43 51.5 43t54.5 -20.5t16 -38t-2 -23.5l-393 -1229q-6 -20 -24.5 -32.5t-42 -12.5t-41 20.5t-17.5 35.5z" />
<glyph unicode="&#xf9;" horiz-adv-x="927" d="M96 369v561q0 27 18.5 45t45.5 18t45 -18.5t18 -44.5v-561q0 -100 72 -171q71 -69 170 -69q96 0 167 67q67 64 73 162v572q0 27 18 45t45 18t45 -18.5t18 -44.5v-867q0 -27 -18 -45t-45 -18t-45 18.5t-18 44.5v27q-103 -90 -240 -90q-155 0 -261 108q-108 109 -108 261z M238 1423q-18 36 5 64t45 28q45 0 60 -30l170 -293q6 -16 6 -35t-17.5 -39.5t-51 -20.5t-47.5 31z" />
<glyph unicode="&#xfa;" horiz-adv-x="927" d="M96 369v561q0 27 18.5 45t45.5 18t45 -18.5t18 -44.5v-561q0 -100 72 -171q71 -69 170 -69q96 0 167 67q67 64 73 162v572q0 27 18 45t45 18t45 -18.5t18 -44.5v-867q0 -27 -18 -45t-45 -18t-45 18.5t-18 44.5v27q-103 -90 -240 -90q-155 0 -261 108q-108 109 -108 261z M426 1160.5q0 18.5 7 31.5l170 295q16 31 49 30.5t50 -21t17 -40.5t-6 -33l-170 -293q-16 -33 -49 -33t-50.5 22.5t-17.5 41z" />
<glyph unicode="&#xfb;" horiz-adv-x="927" d="M96 369v561q0 27 18.5 45t45.5 18t45 -18.5t18 -44.5v-561q0 -100 72 -171q71 -69 170 -69q96 0 167 67q67 64 73 162v572q0 27 18 45t45 18t45 -18.5t18 -44.5v-867q0 -27 -18 -45t-45 -18t-45 18.5t-18 44.5v27q-103 -90 -240 -90q-155 0 -261 108q-108 109 -108 261z M121 1151q0 27 19 45l284 273q18 18 45 18t45 -18l287 -268q18 -18 19 -45q0 -27 -18.5 -45.5t-45.5 -18.5t-45 18l-242 228l-239 -232q-18 -18 -45 -18t-45.5 18.5t-18.5 44.5z" />
<glyph unicode="&#xfc;" horiz-adv-x="927" d="M96 369v561q0 27 18.5 45t45.5 18t45 -18.5t18 -44.5v-561q0 -100 72 -171q71 -69 170 -69q96 0 167 67q67 64 73 162v572q0 27 18 45t45 18t45 -18.5t18 -44.5v-867q0 -27 -18 -45t-45 -18t-45 18.5t-18 44.5v27q-103 -90 -240 -90q-155 0 -261 108q-108 109 -108 261z M223 1217q0 35 24.5 59.5t59.5 24.5t59.5 -25t24.5 -59q0 -35 -24.5 -59.5t-59.5 -24.5t-59.5 24.5t-24.5 59.5zM547 1217q0 35 24.5 59.5t59.5 24.5t59.5 -25t24.5 -59q0 -35 -24.5 -59.5t-59.5 -24.5t-59.5 24.5t-24.5 59.5z" />
<glyph unicode="&#xfd;" horiz-adv-x="921" d="M68 932q0 61 59 61q48 0 61 -37l267 -727l276 727q6 16 22.5 26.5t40 10.5t41 -19.5t17.5 -36.5t-6 -30l-467 -1237q-16 -41 -51 -41t-52.5 19.5t-17.5 35.5q0 19 4 31l123 336l-311 852q-6 12 -6 29zM419 1160.5q0 18.5 7 31.5l170 295q16 31 49 30.5t50 -21t17 -40.5 t-6 -33l-170 -293q-16 -33 -49 -33t-50.5 22.5t-17.5 41z" />
<glyph unicode="&#xfe;" horiz-adv-x="1142" d="M76 -256v1501q0 27 18.5 45.5t44.5 18.5q27 0 45.5 -18.5t18.5 -45.5v-442q68 74 162 128t200 56t195.5 -38t157.5 -107q147 -148 147 -350q0 -200 -145 -346q-143 -146 -358.5 -146t-358.5 158v-414q0 -27 -18.5 -45t-45.5 -18t-45 18t-18 45zM203 475q4 -145 113 -248 q107 -102 253 -102q154 0 261.5 107.5t107.5 259.5q0 153 -107.5 260.5t-261.5 107.5q-148 0 -253 -104q-109 -107 -113 -264v-17z" />
<glyph unicode="&#xff;" horiz-adv-x="921" d="M68 932q0 61 59 61q48 0 61 -37l267 -727l276 727q6 16 22.5 26.5t40 10.5t41 -19.5t17.5 -36.5t-6 -30l-467 -1237q-16 -41 -51 -41t-52.5 19.5t-17.5 35.5q0 19 4 31l123 336l-311 852q-6 12 -6 29zM231 1219q0 35 24.5 59.5t59.5 24.5t59.5 -25t24.5 -59 q0 -35 -24.5 -59.5t-59.5 -24.5t-59.5 24.5t-24.5 59.5zM555 1219q0 35 24.5 59.5t59.5 24.5t59.5 -25t24.5 -59q0 -35 -24.5 -59.5t-59.5 -24.5t-59.5 24.5t-24.5 59.5z" />
<glyph unicode="&#x152;" horiz-adv-x="2080" d="M80 651q0 135 51 254t139 208t207 140.5t254 51.5t254 -51.5t208 -140.5t140 -208t51 -254t-51 -253.5t-140 -207t-208 -139.5t-254 -51t-254 51t-207 139.5t-139 207t-51 253.5zM207 651q0 -219 153 -371q70 -71 166.5 -112t204.5 -41q217 0 373 153q153 149 153 371 q0 220 -153 373q-154 154 -373 154q-221 0 -371 -154q-153 -156 -153 -373zM1252 63v1182q0 27 18.5 45.5t44.5 18.5h623q27 0 45 -18.5t18 -45.5t-18.5 -45t-44.5 -18h-559v-457h372q27 0 45.5 -18.5t18.5 -44.5q0 -27 -18.5 -45.5t-45.5 -18.5h-372v-471h559 q27 0 45 -18.5t18 -45.5t-18.5 -45t-44.5 -18h-623q-27 0 -45 18.5t-18 44.5z" />
<glyph unicode="&#x153;" horiz-adv-x="2015" d="M80 494q0 204 142 346q145 145 352 149q102 2 191 -38t157 -107q147 -148 147 -350q0 -200 -145 -346q-143 -146 -351 -146q-204 0 -347 140q-146 141 -146 352zM207 494q0 -152 107.5 -259.5t258.5 -107.5q154 0 261.5 107.5t107.5 259.5q0 155 -108 261 q-108 107 -261 107q-150 0 -259 -107q-107 -106 -107 -261zM946 494q0 204 142.5 346.5t355.5 150.5q196 0 342 -145q149 -150 149 -348q0 -31 -20.5 -47.5t-42.5 -16.5h-795q20 -130 124 -219q103 -88 238 -88q150 0 258 104q18 18 46 19q27 0 45 -18.5t18 -45.5t-18 -45 q-68 -76 -153 -107.5t-191.5 -31.5t-195.5 37t-156 103q-146 141 -146 352zM1079 561h723q-25 130 -126 214q-104 87 -237 87q-132 0 -236 -87q-99 -83 -124 -214z" />
<glyph unicode="&#x178;" horiz-adv-x="1060" d="M70 1245q0 23 17 42.5t49 19.5t50 -27l344 -514l344 514q18 27 49.5 27t49.5 -19.5t18 -41t-10 -38.5l-387 -575v-570q0 -27 -18.5 -45t-45.5 -18t-45 18.5t-18 44.5v570l-385 575q-12 14 -12 37zM268 1500q0 35 24.5 59.5t59.5 24.5t59.5 -25t24.5 -59 q0 -35 -24.5 -59.5t-59.5 -24.5t-59.5 24.5t-24.5 59.5zM592 1500q0 35 24.5 59.5t59.5 24.5t59.5 -25t24.5 -59q0 -35 -24.5 -59.5t-59.5 -24.5t-59.5 24.5t-24.5 59.5z" />
<glyph unicode="&#x2c6;" horiz-adv-x="886" d="M96 1425q0 27 19 45l284 273q18 18 45 18t45 -18l287 -268q18 -18 19 -45q0 -27 -18.5 -45.5t-45.5 -18.5t-45 18l-242 228l-239 -232q-18 -18 -45 -18t-45.5 18.5t-18.5 44.5z" />
<glyph unicode="&#x2dc;" horiz-adv-x="995" d="M88 1117.5q0 23.5 26.5 58t65.5 67.5q95 80 170 80q62 0 167 -79q40 -30 75 -54.5t68.5 -24.5t60.5 22.5t46 50.5t37.5 50.5t45.5 22.5t41 -19.5t14 -48.5t-25.5 -65.5t-63.5 -65.5q-85 -65 -161 -65q-43 0 -81.5 24.5t-76.5 53t-74 53t-67 24.5t-53 -12t-42.5 -30.5 t-37 -39.5t-30.5 -37q-14 -23 -41.5 -22.5t-45.5 17t-18 40z" />
<glyph unicode="&#x2000;" horiz-adv-x="909" />
<glyph unicode="&#x2001;" horiz-adv-x="1818" />
<glyph unicode="&#x2002;" horiz-adv-x="909" />
<glyph unicode="&#x2003;" horiz-adv-x="1818" />
<glyph unicode="&#x2004;" horiz-adv-x="606" />
<glyph unicode="&#x2005;" horiz-adv-x="454" />
<glyph unicode="&#x2006;" horiz-adv-x="303" />
<glyph unicode="&#x2007;" horiz-adv-x="303" />
<glyph unicode="&#x2008;" horiz-adv-x="227" />
<glyph unicode="&#x2009;" horiz-adv-x="363" />
<glyph unicode="&#x200a;" horiz-adv-x="101" />
<glyph unicode="&#x2010;" horiz-adv-x="950" d="M96 637q0 27 18.5 45t45.5 18h631q27 0 45 -18t18 -45t-18.5 -45.5t-44.5 -18.5h-631q-27 0 -45.5 18.5t-18.5 45.5z" />
<glyph unicode="&#x2011;" horiz-adv-x="950" d="M96 637q0 27 18.5 45t45.5 18h631q27 0 45 -18t18 -45t-18.5 -45.5t-44.5 -18.5h-631q-27 0 -45.5 18.5t-18.5 45.5z" />
<glyph unicode="&#x2012;" horiz-adv-x="950" d="M96 637q0 27 18.5 45t45.5 18h631q27 0 45 -18t18 -45t-18.5 -45.5t-44.5 -18.5h-631q-27 0 -45.5 18.5t-18.5 45.5z" />
<glyph unicode="&#x2013;" horiz-adv-x="950" d="M96 637q0 27 18.5 45t45.5 18h631q27 0 45 -18t18 -45t-18.5 -45.5t-44.5 -18.5h-631q-27 0 -45.5 18.5t-18.5 45.5z" />
<glyph unicode="&#x2014;" horiz-adv-x="1144" d="M96 637q0 27 18.5 45t45.5 18h825q27 0 45.5 -18t18.5 -45t-18.5 -45.5t-45.5 -18.5h-825q-27 0 -45.5 18.5t-18.5 45.5z" />
<glyph unicode="&#x2018;" horiz-adv-x="415" d="M70 1210q-21 36 1.5 64.5t56.5 28.5t52 -31l168 -293q6 -12 6 -34t-18.5 -42t-51 -20t-48.5 35z" />
<glyph unicode="&#x2019;" horiz-adv-x="417" d="M61 943q0 19 9 34l166 293q14 33 48 33t52 -19.5t18 -41t-6 -34.5l-168 -293q-20 -33 -53 -32.5t-49.5 21t-16.5 39.5z" />
<glyph unicode="&#x201a;" horiz-adv-x="313" d="M59 -371q0 11 66 373q4 25 20.5 44.5t42.5 19.5q27 0 45.5 -18.5t18.5 -34t-3 -26t-15.5 -46t-38 -108.5t-72.5 -204q-10 -31 -33 -30q-31 0 -31 30z" />
<glyph unicode="&#x201c;" horiz-adv-x="729" d="M82 1240q0 22 18.5 41t52 19t48.5 -32l166 -293q8 -14 8 -34t-16.5 -40t-49.5 -20t-53 32l-168 293q-6 12 -6 34zM352 1240q0 22 18.5 41t52.5 19t48 -32l166 -293q8 -14 8 -34t-16.5 -40t-49 -20t-53.5 32l-168 293q-6 12 -6 34z" />
<glyph unicode="&#x201d;" horiz-adv-x="729" d="M82 941q0 19 8 34l166 293q14 33 48 32.5t52.5 -19.5t18.5 -40.5t-6 -34.5l-168 -293q-20 -33 -53.5 -32.5t-49.5 21t-16 39.5zM352 941q0 19 8 34l166 293q14 33 48.5 32.5t52.5 -19.5t18 -40.5t-6 -34.5l-168 -293q-20 -33 -53 -32.5t-49.5 21t-16.5 39.5z" />
<glyph unicode="&#x201e;" horiz-adv-x="735" d="M82 -377.5q0 23.5 65 379.5q4 25 20.5 44.5t43.5 19.5t45 -18.5t18 -34t-3 -26t-15 -45.5q-42 -124 -111 -313q-10 -31 -36.5 -30.5t-26.5 24zM458.5 -377.5q0.5 23.5 65.5 379.5q4 25 20.5 44.5t43.5 19.5t45 -18.5t18 -34t-3 -26t-15 -45.5q-18 -54 -111 -313 q-10 -31 -37 -30.5t-26.5 24z" />
<glyph unicode="&#x2022;" horiz-adv-x="479" d="M80 495q0 67 48.5 112.5t97.5 45.5t78.5 -14t51.5 -37q43 -48 43 -111t-48 -109t-113 -46q-66 0 -112 46t-46 113z" />
<glyph unicode="&#x2026;" horiz-adv-x="1146" d="M94 84q0 35 24.5 59.5t59.5 24.5t59.5 -24.5t24.5 -59.5t-24.5 -59.5t-59.5 -24.5t-59.5 24.5t-24.5 59.5zM489 84q0 35 25 59.5t59 24.5q35 0 59.5 -24.5t24.5 -59.5t-24.5 -59.5t-59.5 -24.5t-59.5 24.5t-24.5 59.5zM885 84q0 35 24.5 59.5t59.5 24.5t59.5 -24.5 t24.5 -59.5t-24.5 -59.5t-59.5 -24.5t-59.5 24.5t-24.5 59.5z" />
<glyph unicode="&#x202f;" horiz-adv-x="363" />
<glyph unicode="&#x2039;" horiz-adv-x="710" d="M72 485q0 27 18 45l438 412q18 18 45 19q27 0 45.5 -18.5t18.5 -45.5t-19 -45l-391 -367l391 -372q18 -18 19 -45q0 -27 -18.5 -45.5t-45.5 -18.5t-45 19l-438 417q-18 18 -18 45z" />
<glyph unicode="&#x203a;" horiz-adv-x="708" d="M72 68q0 27 18 45l391 372l-391 367q-18 18 -18 45t18.5 45.5t44.5 18.5q27 0 45 -19l438 -412q18 -18 19 -45q0 -27 -19 -45l-438 -417q-18 -18 -45 -19q-27 0 -45 18.5t-18 45.5z" />
<glyph unicode="&#x205f;" horiz-adv-x="454" />
<glyph unicode="&#x20ac;" horiz-adv-x="1157" d="M78 498q0 27 18.5 45t44.5 18h39v191h-39q-27 0 -45 18t-18 45t18.5 45.5t44.5 18.5h39q12 191 148 315q142 129 327 129q131 0 241 -65.5t171 -172.5q8 -14 8 -36.5t-15.5 -42t-38.5 -19.5q-42 0 -65 33q-45 78 -124.5 127t-162 49t-143.5 -24.5t-107 -67.5 q-100 -93 -112 -225h213q27 0 45.5 -18.5t18.5 -45.5t-18.5 -45t-45.5 -18h-213v-191h213q27 0 45.5 -18.5t18.5 -44.5q0 -27 -18.5 -45.5t-45.5 -18.5h-213q12 -135 111 -228t237 -93q98 0 178 48t125 126q20 31 53.5 30.5t49.5 -19.5t16 -39.5t-10 -41.5 q-61 -104 -171 -167.5t-223.5 -63.5t-197.5 34.5t-147 95.5q-136 129 -148 318h-39q-27 0 -45 18.5t-18 45.5z" />
<glyph unicode="&#x2122;" horiz-adv-x="1734" d="M90 1249q0 27 18.5 45.5t45.5 18.5h401q27 0 45 -18.5t18 -45.5t-18 -45t-45 -18h-137v-408q0 -27 -18.5 -45t-45.5 -18t-45 18.5t-18 44.5v408h-137q-27 0 -45.5 18.5t-18.5 44.5zM692 776v268q0 113 78 191q80 80 199 80t198 -96q83 96 207 96q115 0 190 -78 q78 -82 78 -188v-273q0 -27 -18 -45t-45 -18t-45 18.5t-18 44.5v275q-6 61 -46 99t-97.5 38t-99.5 -42t-42 -102v-268q0 -27 -18.5 -45t-45.5 -18t-45 18.5t-18 44.5v275q-4 59 -45 98t-99 39t-99.5 -41t-41.5 -96v-275q0 -27 -18.5 -45t-44.5 -18q-27 0 -45.5 18.5 t-18.5 44.5z" />
<glyph unicode="&#xe000;" horiz-adv-x="993" d="M0 0v993h993v-993h-993z" />
<glyph unicode="&#xfb01;" horiz-adv-x="825" d="M55 932q0 27 18.5 45t45.5 18h84v43q0 112 77 191q79 80 193 80q27 0 45.5 -18.5t18.5 -45.5t-18.5 -45t-45.5 -18q-59 0 -101 -42t-42 -102v-43h342q25 -2 42 -20.5t17 -42.5v-869q0 -27 -18.5 -45t-44.5 -18q-27 0 -45.5 18.5t-18.5 44.5v805h-274v-805 q0 -27 -18.5 -45t-45.5 -18t-45 18.5t-18 44.5v805h-84q-27 0 -45.5 18.5t-18.5 45.5zM584 1225q0 35 24.5 59.5t59.5 24.5t59.5 -24.5t24.5 -59.5t-25 -59.5t-59 -24.5q-35 0 -59.5 24.5t-24.5 59.5z" />
<glyph unicode="&#xfb02;" horiz-adv-x="839" d="M55 932q0 27 18.5 45t45.5 18h84v43q0 112 77 191q79 80 193 80h201q27 0 45 -18.5t18 -45.5v-1182q0 -27 -18.5 -45t-44.5 -18q-27 0 -45.5 18.5t-18.5 44.5v1119h-137q-59 0 -101 -42t-42 -102v-43h139q27 0 45 -18.5t18 -44.5q0 -27 -18 -45.5t-45 -18.5h-139v-805 q0 -27 -18.5 -45t-45.5 -18t-45 18.5t-18 44.5v805h-84q-27 0 -45.5 18.5t-18.5 45.5z" />
</font>
</defs>
</svg>
